<svg width="763" height="169" viewBox="0 0 763 169" fill="none" xmlns="http://www.w3.org/2000/svg">
<path d="M30.8817 166.647C38.5578 166.756 44.5647 160.521 44.6742 152.864C44.7837 145.207 38.5337 139.216 30.8575 139.106C23.1814 138.997 17.1745 145.232 17.065 152.888C17.353 160.441 23.7074 166.83 30.8817 166.647ZM31.23 145.366C35.5177 145.514 38.9458 148.855 39.1941 153.028C39.0449 157.305 35.6962 160.724 31.5128 160.972C27.2251 160.823 23.797 157.483 23.5487 153.31C23.1961 148.74 26.9423 145.217 31.23 145.366Z" fill="white"/>
<path d="M700.034 169C708.505 168.901 714.805 162.166 714.81 154.113C714.815 146.059 708.356 139.274 700.283 139.269C692.209 139.264 685.408 145.707 685.402 153.76C685.501 162.21 691.96 168.995 700.034 169ZM700.258 145.633C704.943 145.677 708.977 149.707 708.932 154.38C708.888 159.054 704.848 163.078 700.163 163.033C695.478 162.988 691.444 158.959 691.489 154.286C691.429 149.216 695.573 145.588 700.258 145.633Z" fill="white"/>
<path d="M617.275 144.282L657.956 144.317L657.951 150.055L617.27 150.02L617.275 144.282Z" fill="white"/>
<path d="M0.447374 0L686.619 0.186344L686.614 5.92495L0.44243 5.73861L0.447374 0Z" fill="white"/>
<path d="M0.00494394 17.331L689.875 17.5205L689.87 23.2591L0 23.0696L0.00494394 17.331Z" fill="white"/>
<path d="M0.373359 34.7966L692.709 34.9883L692.704 40.7269L0.368415 40.5352L0.373359 34.7966Z" fill="white"/>
<path d="M0.188997 52.1365L712.249 52.345L712.244 58.0837L0.184053 57.8751L0.188997 52.1365Z" fill="white"/>
<path d="M0.203414 69.7176L743.083 69.9526L743.078 75.6912L0.19847 75.4562L0.203414 69.7176Z" fill="white"/>
<path d="M0.178974 86.9351L747.579 87.1739L747.574 92.9125L0.17403 92.6737L0.178974 86.9351Z" fill="white"/>
<path d="M0.237902 104.761L755.856 105.007L755.852 110.746L0.232958 110.5L0.237902 104.761Z" fill="white"/>
<path d="M0.253793 121.894L762.036 122.145L762.031 127.884L0.248849 127.633L0.253793 121.894Z" fill="white"/>
</svg>
