<svg width="1920" height="666" viewBox="0 0 1920 666" fill="none" xmlns="http://www.w3.org/2000/svg">
<path d="M902.636 294.967L892.68 317.988L898.009 320.293L907.965 297.271L902.636 294.967Z" fill="white"/>
<path d="M876.703 285.669L866.75 308.691L872.079 310.995L882.033 287.973L876.703 285.669Z" fill="white"/>
<path d="M850.59 276.25L840.637 299.271L845.966 301.576L855.919 278.554L850.59 276.25Z" fill="white"/>
<path d="M824.507 266.805L814.551 289.826L819.88 292.131L829.836 269.109L824.507 266.805Z" fill="white"/>
<path d="M798.453 257.203L788.5 280.225L793.829 282.529L803.783 259.507L798.453 257.203Z" fill="white"/>
<path d="M772.555 247.875L762.602 270.896L767.931 273.201L777.884 250.179L772.555 247.875Z" fill="white"/>
<path d="M746.438 238.459L736.484 261.48L741.814 263.784L751.767 240.763L746.438 238.459Z" fill="white"/>
<path d="M720.329 229.039L710.375 252.061L715.704 254.365L725.658 231.343L720.329 229.039Z" fill="white"/>
<path d="M694.211 219.617L684.258 242.639L689.587 244.943L699.54 221.921L694.211 219.617Z" fill="white"/>
<path d="M668.222 209.959L658.266 232.98L663.595 235.285L673.551 212.264L668.222 209.959Z" fill="white"/>
<path d="M1238.08 418.382L1228.12 441.404L1233.45 443.708L1243.41 420.686L1238.08 418.382Z" fill="white"/>
<path d="M1264.38 426.888L1254.43 449.91L1259.76 452.214L1269.71 429.192L1264.38 426.888Z" fill="white"/>
<path d="M1290.69 435.394L1280.73 458.416L1286.06 460.72L1296.02 437.698L1290.69 435.394Z" fill="white"/>
<path d="M1317 443.902L1307.04 466.924L1312.37 469.228L1322.33 446.206L1317 443.902Z" fill="white"/>
<path d="M1343.3 452.408L1333.35 475.43L1338.68 477.734L1348.63 454.712L1343.3 452.408Z" fill="white"/>
<path d="M1369.61 460.915L1359.65 483.938L1364.98 486.242L1374.93 463.219L1369.61 460.915Z" fill="white"/>
<path d="M1395.91 469.421L1385.96 492.443L1391.29 494.747L1401.24 471.725L1395.91 469.421Z" fill="white"/>
<path d="M1422.22 477.927L1412.27 500.949L1417.59 503.253L1427.55 480.231L1422.22 477.927Z" fill="white"/>
<path d="M1448.52 486.435L1438.57 509.457L1443.9 511.761L1453.85 488.739L1448.52 486.435Z" fill="white"/>
<path d="M1474.83 494.941L1464.88 517.963L1470.2 520.267L1480.16 497.245L1474.83 494.941Z" fill="white"/>
<path d="M1501.14 503.449L1491.18 526.471L1496.51 528.775L1506.47 505.753L1501.14 503.449Z" fill="white"/>
<path d="M1527.44 511.954L1517.49 534.977L1522.82 537.281L1532.77 514.259L1527.44 511.954Z" fill="white"/>
<path d="M1553.75 520.46L1543.79 543.482L1549.12 545.787L1559.08 522.764L1553.75 520.46Z" fill="white"/>
<path d="M1580.05 528.968L1570.1 551.99L1575.43 554.294L1585.38 531.272L1580.05 528.968Z" fill="white"/>
<path d="M1606.36 537.474L1596.41 560.496L1601.74 562.8L1611.69 539.778L1606.36 537.474Z" fill="white"/>
<path d="M1632.66 545.982L1622.71 569.004L1628.04 571.308L1637.99 548.286L1632.66 545.982Z" fill="white"/>
<path d="M1658.97 554.488L1649.02 577.51L1654.34 579.814L1664.3 556.792L1658.97 554.488Z" fill="white"/>
<path d="M1685.27 562.995L1675.32 586.018L1680.65 588.322L1690.6 565.3L1685.27 562.995Z" fill="white"/>
<path d="M1711.58 571.501L1701.63 594.523L1706.96 596.828L1716.91 573.805L1711.58 571.501Z" fill="white"/>
<path d="M1737.89 580.007L1727.93 603.029L1733.26 605.333L1743.22 582.311L1737.89 580.007Z" fill="white"/>
<path d="M1764.19 588.515L1754.24 611.537L1759.57 613.841L1769.52 590.819L1764.19 588.515Z" fill="white"/>
<path d="M1790.5 597.021L1780.55 620.043L1785.88 622.347L1795.83 599.325L1790.5 597.021Z" fill="white"/>
<path d="M1816.8 605.529L1806.85 628.551L1812.18 630.855L1822.13 607.833L1816.8 605.529Z" fill="white"/>
<path d="M1843.11 614.034L1833.16 637.057L1838.49 639.361L1848.44 616.339L1843.11 614.034Z" fill="white"/>
<path d="M1869.41 622.54L1859.46 645.562L1864.79 647.867L1874.74 624.844L1869.41 622.54Z" fill="white"/>
<path d="M1895.72 631.048L1885.77 654.07L1891.1 656.374L1901.05 633.352L1895.72 631.048Z" fill="white"/>
<path d="M1922.03 639.554L1912.07 662.576L1917.4 664.88L1927.36 641.858L1922.03 639.554Z" fill="white"/>
<path d="M1211.97 408.966L1202.02 431.988L1207.34 434.292L1217.3 411.27L1211.97 408.966Z" fill="white"/>
<path d="M1185.85 399.546L1175.89 422.568L1181.22 424.872L1191.18 401.85L1185.85 399.546Z" fill="white"/>
<path d="M1159.85 389.889L1149.9 412.91L1155.23 415.215L1165.18 392.193L1159.85 389.889Z" fill="white"/>
<path d="M1133.93 380.588L1123.98 403.609L1129.31 405.913L1139.26 382.892L1133.93 380.588Z" fill="white"/>
<path d="M1107.82 371.172L1097.86 394.193L1103.19 396.497L1113.15 373.476L1107.82 371.172Z" fill="white"/>
<path d="M1081.7 361.747L1071.75 384.77L1077.08 387.074L1087.03 364.051L1081.7 361.747Z" fill="white"/>
<path d="M1055.59 352.331L1045.64 375.354L1050.97 377.658L1060.92 354.635L1055.59 352.331Z" fill="white"/>
<path d="M1029.47 342.911L1019.52 365.934L1024.84 368.238L1034.8 345.216L1029.47 342.911Z" fill="white"/>
<path d="M1003.66 333.373L993.711 356.395L999.04 358.699L1008.99 335.677L1003.66 333.373Z" fill="white"/>
<path d="M977.551 323.952L967.598 346.975L972.927 349.279L982.88 326.257L977.551 323.952Z" fill="white"/>
<path d="M951.438 314.535L941.484 337.557L946.814 339.861L956.767 316.839L951.438 314.535Z" fill="white"/>
<path d="M925.325 305.115L915.371 328.137L920.7 330.441L930.654 307.419L925.325 305.115Z" fill="white"/>
<path d="M304.317 51.8182L315.043 74.4902L320.291 72.0072L309.565 49.3352L304.317 51.8182Z" fill="white"/>
<path d="M280.006 65.1819L290.73 87.8555L295.979 85.3729L285.255 62.6994L280.006 65.1819Z" fill="white"/>
<path d="M255.598 78.4159L266.324 101.088L271.572 98.6049L260.846 75.9329L255.598 78.4159Z" fill="white"/>
<path d="M231.496 91.7186L242.223 114.391L247.471 111.908L236.744 89.2356L231.496 91.7186Z" fill="white"/>
<path d="M207.184 105.123L217.91 127.795L223.158 125.312L212.432 102.64L207.184 105.123Z" fill="white"/>
<path d="M182.875 118.521L193.602 141.193L198.85 138.71L188.123 116.038L182.875 118.521Z" fill="white"/>
<path d="M158.563 131.926L169.289 154.598L174.537 152.115L163.811 129.443L158.563 131.926Z" fill="white"/>
<path d="M134.154 145.076L144.879 167.75L150.127 165.267L139.403 142.594L134.154 145.076Z" fill="white"/>
<path d="M110.055 158.42L120.781 181.092L126.029 178.609L115.303 155.937L110.055 158.42Z" fill="white"/>
<path d="M85.7421 171.826L96.4688 194.498L101.717 192.015L90.9903 169.343L85.7421 171.826Z" fill="white"/>
<path d="M61.4298 185.225L72.1562 207.896L77.4044 205.413L66.6779 182.742L61.4298 185.225Z" fill="white"/>
<path d="M37.1171 198.627L47.8438 221.299L53.0919 218.816L42.3653 196.144L37.1171 198.627Z" fill="white"/>
<path d="M12.8087 212.027L23.5352 234.699L28.7833 232.216L18.0569 209.544L12.8087 212.027Z" fill="white"/>
<path d="M-11.3946 225.123L-0.667969 247.795L4.5802 245.312L-6.1464 222.64L-11.3946 225.123Z" fill="white"/>
<path d="M645.082 197.838L632.344 219.443L637.345 222.392L650.084 200.786L645.082 197.838Z" fill="white"/>
<path d="M620.543 185.363L607.805 206.969L612.806 209.917L625.544 188.312L620.543 185.363Z" fill="white"/>
<path d="M595.801 172.771L583.062 194.377L588.064 197.326L600.802 175.72L595.801 172.771Z" fill="white"/>
<path d="M571.063 160.177L558.324 181.783L563.326 184.732L576.064 163.126L571.063 160.177Z" fill="white"/>
<path d="M546.32 147.584L533.582 169.189L538.583 172.138L551.322 150.532L546.32 147.584Z" fill="white"/>
<path d="M521.733 134.768L508.992 156.373L513.993 159.322L526.734 137.717L521.733 134.768Z" fill="white"/>
<path d="M497.16 122.32L484.422 143.926L489.423 146.874L502.162 125.269L497.16 122.32Z" fill="white"/>
<path d="M472.418 109.728L459.68 131.334L464.681 134.283L477.42 112.677L472.418 109.728Z" fill="white"/>
<path d="M447.68 97.1326L434.941 118.738L439.943 121.687L452.681 100.081L447.68 97.1326Z" fill="white"/>
<path d="M422.938 84.5387L410.199 106.145L415.201 109.093L427.939 87.4874L422.938 84.5387Z" fill="white"/>
<path d="M398.2 71.947L385.461 93.5527L390.462 96.5014L403.201 74.8957L398.2 71.947Z" fill="white"/>
<path d="M373.774 59.2711L361.035 80.877L366.037 83.8257L378.775 62.2198L373.774 59.2711Z" fill="white"/>
<path d="M349.035 46.6812L336.297 68.2871L341.298 71.2358L354.037 49.6299L349.035 46.6812Z" fill="white"/>
</svg>
