<svg width="323" height="286" viewBox="0 0 323 286" fill="none" xmlns="http://www.w3.org/2000/svg">
<path d="M61.4355 223.154C68.7656 223.295 74.5319 217.355 74.6733 210.025C74.8146 202.695 68.8748 196.928 61.5448 196.787C54.2147 196.646 48.4481 202.586 48.3068 209.916C48.1654 217.246 54.1055 223.012 61.4355 223.154ZM61.3925 202.499C65.4865 202.662 68.7443 205.877 68.9614 209.873C69.1785 213.869 65.584 217.224 61.5878 217.442C57.4938 217.279 54.236 214.064 54.0189 210.068C53.8018 206.072 57.2985 202.336 61.3925 202.499Z" fill="white"/>
<path d="M275.334 226.097C283.044 226.14 289.571 220.005 289.614 212.295C289.658 204.585 283.522 198.058 275.812 198.015C268.102 197.971 261.575 204.106 261.532 211.817C261.206 220.004 267.624 226.053 275.334 226.097ZM275.28 203.824C279.754 203.89 283.587 207.766 283.522 212.241C283.457 216.715 279.58 220.548 275.106 220.483C270.632 220.417 266.799 216.54 266.864 212.066C266.929 207.592 270.806 203.759 275.28 203.824Z" fill="white"/>
<path d="M196.105 202.454L234.955 202.683L234.923 208.177L196.073 207.948L196.105 202.454Z" fill="white"/>
<path d="M32.7513 63.1007L240.346 64.3203L240.313 69.8143L32.719 68.5947L32.7513 63.1007Z" fill="white"/>
<path d="M32.6297 80.0934L243.756 81.334L243.724 86.828L32.5974 85.5874L32.6297 80.0934Z" fill="white"/>
<path d="M32.5074 96.8103L245.988 98.0645L245.956 103.558L32.4752 102.304L32.5074 96.8103Z" fill="white"/>
<path d="M32.2588 113.409L264.576 114.773L264.544 120.267L32.2266 118.903L32.2588 113.409Z" fill="white"/>
<path d="M32.1824 129.85L293.932 131.388L293.899 136.882L32.1501 135.344L32.1824 129.85Z" fill="white"/>
<path d="M32.0824 146.728L298.148 148.291L298.116 153.785L32.0502 152.222L32.0824 146.728Z" fill="white"/>
<path d="M32.4448 163.119L306.359 164.729L306.327 170.222L32.4126 168.613L32.4448 163.119Z" fill="white"/>
<path d="M31.982 179.803L311.783 181.446L311.751 186.94L31.9497 185.296L31.982 179.803Z" fill="white"/>
</svg>
