<svg width="309" height="272" viewBox="0 0 309 272" fill="none" xmlns="http://www.w3.org/2000/svg">
<path d="M250.974 213.739C243.87 213.858 238.296 208.087 238.177 200.982C238.058 193.877 243.829 188.303 250.934 188.184C258.039 188.066 263.613 193.837 263.732 200.941C263.85 208.046 258.079 213.62 250.974 213.739ZM251.067 193.721C247.099 193.869 243.934 196.976 243.713 200.849C243.493 204.721 246.968 207.982 250.841 208.203C254.809 208.055 257.975 204.947 258.195 201.075C258.415 197.202 255.036 193.573 251.067 193.721Z" fill="white"/>
<path d="M43.6522 216.066C36.1795 216.089 29.869 210.126 29.8458 202.654C29.8227 195.181 35.7852 188.871 43.258 188.847C50.7307 188.824 57.0412 194.787 57.0644 202.26C57.36 210.196 51.125 216.043 43.6522 216.066ZM43.7594 194.48C39.423 194.532 35.6982 198.28 35.7504 202.616C35.8026 206.952 39.5505 210.677 43.8869 210.625C48.2233 210.573 51.948 206.825 51.8959 202.488C51.8437 198.152 48.0958 194.427 43.7594 194.48Z" fill="white"/>
<path d="M120.502 193.345L82.8477 193.47L82.8653 198.795L120.52 198.67L120.502 193.345Z" fill="white"/>
<path d="M279.17 58.6861L77.9668 59.3545L77.9845 64.6793L279.187 64.011L279.17 58.6861Z" fill="white"/>
<path d="M279.228 75.157L74.6016 75.8369L74.6192 81.1617L279.245 80.4818L279.228 75.157Z" fill="white"/>
<path d="M279.32 91.3558L72.4121 92.043L72.4298 97.3678L279.338 96.6807L279.32 91.3558Z" fill="white"/>
<path d="M279.524 107.45L54.3594 108.198L54.3771 113.523L279.542 112.775L279.524 107.45Z" fill="white"/>
<path d="M279.558 123.381L25.8672 124.224L25.8849 129.548L279.575 128.706L279.558 123.381Z" fill="white"/>
<path d="M279.613 139.74L21.7383 140.597L21.756 145.922L279.63 145.065L279.613 139.74Z" fill="white"/>
<path d="M279.22 155.626L13.7383 156.508L13.756 161.833L279.237 160.951L279.22 155.626Z" fill="white"/>
<path d="M279.632 171.796L8.44531 172.697L8.463 178.022L279.65 177.121L279.632 171.796Z" fill="white"/>
</svg>
