<svg width="268" height="253" viewBox="0 0 268 253" fill="none" xmlns="http://www.w3.org/2000/svg">
<path d="M90.0013 209.614L83.2168 207.858L81.8638 213.086L80.3071 212.683L83.44 200.578L84.9967 200.98L83.5596 206.533L90.344 208.289L91.7812 202.736L93.3379 203.139L90.205 215.244L88.6483 214.841L90.0013 209.614Z" fill="white"/>
<path d="M61.5968 178.934C62.0475 179.318 62.4055 179.749 62.6708 180.227C62.9136 180.707 63.067 181.206 63.1311 181.723C63.1831 182.229 63.1378 182.727 62.9953 183.215C62.8425 183.715 62.5897 184.172 62.237 184.586C61.8843 185.001 61.4601 185.301 60.9643 185.489C60.4686 185.676 59.9352 185.747 59.364 185.702C58.7929 185.657 58.2067 185.494 57.6053 185.213C56.9936 184.944 56.3954 184.561 55.8107 184.063C55.3234 183.648 54.8664 183.185 54.4396 182.675C54.0127 182.164 53.6719 181.664 53.4169 181.173L52.6856 182.032C51.9698 182.873 51.6419 183.739 51.7021 184.631C51.7518 185.535 52.1969 186.344 53.0375 187.06C53.5247 187.475 54.1071 187.803 54.7847 188.044C55.4623 188.285 56.2186 188.445 57.0536 188.526L56.7919 189.722C54.8562 189.502 53.3097 188.9 52.1525 187.914C50.9587 186.898 50.306 185.764 50.1945 184.513C50.0829 183.262 50.5302 182.046 51.5364 180.864L55.1932 176.57C55.4837 176.229 55.4766 175.929 55.1721 175.67L56.1057 174.573C56.3439 174.713 56.5179 174.83 56.6275 174.923C56.9442 175.193 57.1265 175.485 57.1744 175.799C57.21 176.102 57.1147 176.399 56.8883 176.69L56.2868 177.47C57.2129 177.271 58.1406 177.305 59.0699 177.571C59.9871 177.826 60.8293 178.281 61.5968 178.934ZM60.4953 179.636C59.8497 179.086 59.1551 178.704 58.4117 178.492C57.656 178.268 56.967 178.239 56.3445 178.402C56.1415 178.418 55.9637 178.466 55.8113 178.547C55.6362 178.629 55.5021 178.725 55.4087 178.834L54.086 180.388C54.3653 180.899 54.694 181.389 55.0721 181.858C55.438 182.317 55.8524 182.743 56.3153 183.137C57.1924 183.884 58.0606 184.308 58.92 184.41C59.7794 184.511 60.4632 184.263 60.9715 183.666C61.2205 183.374 61.3991 183.053 61.5073 182.704C61.6033 182.345 61.6369 181.984 61.608 181.623C61.5565 181.264 61.4373 180.911 61.2505 180.563C61.0637 180.214 60.812 179.905 60.4953 179.636Z" fill="white"/>
<path d="M30.1662 131.249L29.7226 129.48L36.7388 132.595L41.752 126.044L42.1956 127.813L37.729 133.485L38.1609 135.208L43.7014 133.819L44.0924 135.379L31.9638 138.42L31.5728 136.86L36.9271 135.517L36.5302 133.934L30.1662 131.249Z" fill="white"/>
<path d="M49.3774 92.677C49.2168 93.5747 48.9049 94.3641 48.4418 95.0452C47.9629 95.7235 47.3827 96.2861 46.7014 96.7331C46.0228 97.1644 45.2709 97.4606 44.4456 97.6218C43.6204 97.7831 42.7825 97.7876 41.932 97.6355C41.0657 97.4805 40.2735 97.1844 39.5553 96.7471C38.8399 96.294 38.2387 95.7477 37.7517 95.1079C37.2676 94.4524 36.9184 93.7236 36.7044 92.9213C36.4903 92.1191 36.4621 91.277 36.6199 90.395C36.7776 89.513 37.096 88.7329 37.5749 88.0546C38.0566 87.3606 38.6367 86.7979 39.3153 86.3667C39.9966 85.9196 40.7499 85.6155 41.5752 85.4543C42.4033 85.2774 43.2505 85.2664 44.1167 85.4213C44.9672 85.5734 45.7516 85.8682 46.4698 86.3055C47.1881 86.7427 47.7892 87.2891 48.2734 87.9446C48.7604 88.5844 49.1095 89.3132 49.3207 90.1312C49.5191 90.9306 49.538 91.7792 49.3774 92.677ZM42.2472 96.0096C42.9402 96.1335 43.6071 96.1309 44.2478 96.0017C44.8728 95.8697 45.4489 95.6477 45.9761 95.3356C46.4904 95.005 46.9214 94.5945 47.2692 94.104C47.6198 93.5979 47.85 93.0377 47.9599 92.4234C48.0698 91.8092 48.0466 91.2117 47.8904 90.6312C47.7212 90.032 47.4528 89.4883 47.085 88.9999C46.7015 88.5087 46.2316 88.0914 45.6754 87.7481C45.1192 87.4048 44.4945 87.1712 43.8015 87.0472C43.1243 86.9261 42.4653 86.9301 41.8245 87.0593C41.168 87.1857 40.5826 87.4142 40.0684 87.7448C39.5384 88.0726 39.0981 88.4896 38.7475 88.9958C38.3839 89.4834 38.1472 90.0343 38.0374 90.6485C37.9275 91.2628 37.9585 91.8616 38.1305 92.445C38.2867 93.0256 38.5566 93.5615 38.9401 94.0527C39.3236 94.5439 39.8013 94.9625 40.3733 95.3087C40.9296 95.652 41.5542 95.8856 42.2472 96.0096Z" fill="white"/>
<path d="M66.0794 67.6185C66.3212 67.24 66.459 66.8539 66.4928 66.4602C66.5137 66.0569 66.3712 65.5918 66.0653 65.0649C65.7561 64.5157 65.2561 63.8743 64.5654 63.1408C63.8843 62.3945 62.9609 61.4778 61.7954 60.3909L59.2957 58.0816L63.6806 52.1904L73.7111 59.6561L72.7511 60.9461L63.7601 54.2541L61.2381 57.6425L63.2708 59.5743C64.4814 60.7347 65.4467 61.7424 66.1666 62.5973C66.8737 63.4428 67.3853 64.2025 67.7014 64.8765C68.0142 65.5282 68.1364 66.1278 68.068 66.6752C67.9867 67.2131 67.7679 67.7483 67.4114 68.2808L66.0794 67.6185Z" fill="white"/>
<path d="M105.25 44.6073C104.445 45.036 103.625 45.2825 102.789 45.3469C101.96 45.3897 101.159 45.2814 100.386 45.0221C99.6063 44.7486 98.8907 44.3411 98.2398 43.7995C97.603 43.2504 97.074 42.5804 96.6528 41.7896C96.2392 41.0128 95.9861 40.2141 95.8934 39.3933C95.8074 38.5509 95.8691 37.7477 96.0785 36.9835C96.2945 36.1978 96.6625 35.4762 97.1825 34.8186C97.6949 34.1469 98.3466 33.6005 99.1374 33.1794C99.9424 32.7507 100.759 32.515 101.589 32.4723C102.425 32.4078 103.222 32.5091 103.98 32.7759C104.738 33.0427 105.432 33.4437 106.062 33.9786C106.691 34.5136 107.209 35.1624 107.615 35.925C107.675 36.038 107.735 36.151 107.795 36.264C107.855 36.377 107.89 36.4584 107.898 36.5083L98.4502 41.5394C98.8084 42.11 99.2359 42.5893 99.7326 42.9774C100.236 43.3439 100.769 43.6129 101.332 43.7846C101.894 43.9562 102.465 44.0239 103.044 43.9875C103.629 43.9296 104.19 43.7577 104.727 43.4719C105.08 43.2839 105.407 43.0465 105.707 42.7596C106.008 42.4727 106.261 42.1656 106.467 41.8382C106.674 41.5108 106.833 41.1631 106.945 40.7952C107.05 40.4132 107.087 40.04 107.056 39.6758L108.486 39.3491C108.535 39.8489 108.494 40.351 108.364 40.8554C108.226 41.3457 108.02 41.827 107.746 42.2993C107.464 42.7574 107.11 43.1817 106.684 43.572C106.265 43.9764 105.787 44.3215 105.25 44.6073ZM105.956 36.1287C105.598 35.5581 105.171 35.0967 104.675 34.7443C104.186 34.3704 103.663 34.1046 103.108 33.9471C102.567 33.7821 102.004 33.7285 101.418 33.7865C100.847 33.837 100.293 34.0051 99.7565 34.2908C99.2198 34.5766 98.7641 34.9462 98.3892 35.3996C98.0143 35.853 97.7373 36.354 97.5581 36.9026C97.393 37.4437 97.3291 38.0215 97.3664 38.6361C97.4178 39.2432 97.5764 39.8476 97.8424 40.4491L105.956 36.1287Z" fill="white"/>
<path d="M136.431 37.0724C136.403 36.1929 136.53 35.3566 136.809 34.5636C137.089 33.7705 137.492 33.0778 138.018 32.4853C138.559 31.8762 139.209 31.392 139.966 31.0324C140.723 30.6729 141.565 30.4788 142.493 30.4501C143.676 30.4136 144.716 30.6536 145.613 31.1702C146.509 31.6707 147.195 32.3699 147.67 33.2676L146.103 33.8203C145.731 33.1915 145.22 32.711 144.57 32.3789C143.934 32.0304 143.233 31.8679 142.466 31.8917C141.826 31.9114 141.23 32.0579 140.678 32.331C140.142 32.6037 139.673 32.9704 139.272 33.431C138.885 33.8751 138.581 34.4048 138.36 35.0199C138.155 35.6345 138.064 36.3017 138.086 37.0213C138.108 37.725 138.248 38.385 138.507 39.0013C138.766 39.6175 139.111 40.1512 139.541 40.6021C139.971 41.037 140.462 41.382 141.014 41.6371C141.581 41.8757 142.177 41.9854 142.801 41.9661C143.2 41.9538 143.591 41.8857 143.971 41.7619C144.367 41.6376 144.73 41.4743 145.06 41.272C145.39 41.0538 145.67 40.813 145.902 40.5497C146.134 40.2864 146.294 40.0093 146.381 39.7185L148.003 40.1486C147.841 40.6019 147.598 41.0256 147.274 41.4198C146.949 41.798 146.56 42.1381 146.105 42.4403C145.666 42.726 145.168 42.9495 144.613 43.1107C144.074 43.2874 143.509 43.3849 142.917 43.4032C142.006 43.4314 141.161 43.2894 140.383 42.9772C139.604 42.6491 138.926 42.1978 138.348 41.6234C137.769 41.033 137.308 40.3509 136.964 39.5772C136.636 38.8029 136.458 37.968 136.431 37.0724Z" fill="white"/>
<path d="M174.782 57.2393C174.241 57.0006 173.774 56.6901 173.383 56.308C173.013 55.9176 172.723 55.484 172.514 55.007C172.319 54.5365 172.22 54.047 172.217 53.5385C172.22 53.0154 172.331 52.5049 172.551 52.0071C172.77 51.5093 173.09 51.0997 173.512 50.7784C173.933 50.457 174.424 50.2361 174.984 50.1158C175.544 49.9954 176.152 49.9838 176.809 50.0808C177.472 50.1632 178.155 50.3592 178.858 50.6689C179.444 50.927 180.014 51.2395 180.569 51.6066C181.124 51.9736 181.594 52.3555 181.979 52.7523L182.434 51.7201C182.879 50.7098 182.945 49.7861 182.632 48.9488C182.326 48.0968 181.667 47.4483 180.657 47.0031C180.071 46.745 179.419 46.5976 178.701 46.5609C177.983 46.5242 177.212 46.5867 176.389 46.7485L176.298 45.5279C178.215 45.184 179.869 45.3185 181.26 45.9314C182.695 46.5637 183.645 47.4632 184.11 48.6298C184.575 49.7964 184.495 51.0898 183.869 52.51L181.595 57.6711C181.414 58.081 181.507 58.3667 181.873 58.528L181.292 59.8457C181.024 59.7799 180.824 59.718 180.692 59.6599C180.311 59.4922 180.053 59.2648 179.917 58.9776C179.796 58.697 179.803 58.385 179.936 58.0418L180.289 57.122C179.459 57.5779 178.56 57.8114 177.594 57.8226C176.642 57.8402 175.705 57.6458 174.782 57.2393ZM175.637 56.2521C176.413 56.5941 177.188 56.7606 177.961 56.7517C178.749 56.7492 179.417 56.5805 179.967 56.2458C180.157 56.1721 180.313 56.0749 180.437 55.9543C180.581 55.8255 180.682 55.6952 180.74 55.5635L181.563 53.6967C181.149 53.287 180.693 52.9115 180.197 52.5703C179.715 52.2355 179.196 51.9456 178.639 51.7004C177.585 51.2358 176.632 51.078 175.779 51.2269C174.927 51.3758 174.343 51.809 174.027 52.5264C173.872 52.8778 173.792 53.2363 173.789 53.6018C173.8 53.9738 173.871 54.3285 174.002 54.666C174.154 54.9953 174.369 55.3001 174.648 55.5802C174.927 55.8604 175.256 56.0844 175.637 56.2521Z" fill="white"/>
<path d="M205.544 71.0687L204.442 77.1328L204.305 77.5171L204.701 77.4169L210.842 76.8917L212.021 78.1877L204.156 78.8862L202.771 86.6019L201.592 85.306L202.677 79.258L202.796 78.8899L202.418 78.974L196.295 79.483L195.116 78.187L202.928 77.537L204.366 69.7727L205.544 71.0687Z" fill="white"/>
</svg>
