<svg width="1944" height="1354" viewBox="0 0 1944 1354" fill="none" xmlns="http://www.w3.org/2000/svg">
<path d="M310.765 268.647L316.605 271.727L303.301 296.959L297.46 293.879L310.765 268.647Z" fill="white"/>
<path d="M289.011 240.229L294.852 243.309L281.547 268.541L275.706 265.461L289.011 240.229Z" fill="white"/>
<path d="M267.257 211.809L273.098 214.889L259.793 240.121L253.952 237.041L267.257 211.809Z" fill="white"/>
<path d="M245.499 183.389L251.34 186.469L238.035 211.701L232.195 208.621L245.499 183.389Z" fill="white"/>
<path d="M223.745 154.969L229.586 158.049L216.281 183.281L210.441 180.201L223.745 154.969Z" fill="white"/>
<path d="M201.987 126.549L207.828 129.629L194.524 154.861L188.683 151.781L201.987 126.549Z" fill="white"/>
<path d="M180.233 98.1292L186.074 101.209L172.77 126.441L166.929 123.362L180.233 98.1292Z" fill="white"/>
<path d="M333.121 297.128L338.879 300.359L324.918 325.233L319.16 322.001L333.121 297.128Z" fill="white"/>
<path d="M354.418 320.426L360.176 323.658L346.212 348.531L340.454 345.299L354.418 320.426Z" fill="white"/>
<path d="M375.453 343.836L381.211 347.068L367.247 371.942L361.489 368.709L375.453 343.836Z" fill="white"/>
<path d="M396.715 367.022L402.473 370.254L388.511 395.127L382.754 391.895L396.715 367.022Z" fill="white"/>
<path d="M417.875 390.559L423.633 393.791L409.669 418.664L403.911 415.432L417.875 390.559Z" fill="white"/>
<path d="M439.043 413.736L444.801 416.969L430.837 441.842L425.079 438.61L439.043 413.736Z" fill="white"/>
<path d="M460.078 437.15L465.836 440.383L451.872 465.256L446.114 462.024L460.078 437.15Z" fill="white"/>
<path d="M481.473 460.459L487.23 463.691L473.266 488.565L467.509 485.332L481.473 460.459Z" fill="white"/>
<path d="M502.598 483.866L508.355 487.098L494.394 511.971L488.637 508.739L502.598 483.866Z" fill="white"/>
<path d="M523.668 507.047L529.426 510.279L515.462 535.153L509.704 531.92L523.668 507.047Z" fill="white"/>
<path d="M544.934 530.592L550.691 533.824L536.727 558.698L530.97 555.465L544.934 530.592Z" fill="white"/>
<path d="M566.094 553.77L571.852 557.002L557.888 581.875L552.13 578.643L566.094 553.77Z" fill="white"/>
<path d="M587.133 577.178L592.891 580.41L578.927 605.284L573.169 602.051L587.133 577.178Z" fill="white"/>
<path d="M608.399 600.721L614.156 603.953L600.192 628.827L594.434 625.594L608.399 600.721Z" fill="white"/>
<path d="M629.559 623.9L635.316 627.133L621.352 652.006L615.595 648.774L629.559 623.9Z" fill="white"/>
<path d="M650.594 647.314L656.352 650.547L642.388 675.42L636.63 672.188L650.594 647.314Z" fill="white"/>
<path d="M672.07 670.606L677.828 673.838L663.867 698.711L658.109 695.479L672.07 670.606Z" fill="white"/>
<path d="M693.024 694.031L698.781 697.264L684.817 722.137L679.06 718.905L693.024 694.031Z" fill="white"/>
<path d="M714.188 717.213L719.945 720.445L705.981 745.319L700.224 742.086L714.188 717.213Z" fill="white"/>
<path d="M735.531 740.733L741.289 743.965L727.328 768.838L721.57 765.606L735.531 740.733Z" fill="white"/>
<path d="M756.617 763.932L762.375 767.164L748.411 792.037L742.653 788.805L756.617 763.932Z" fill="white"/>
<path d="M781.649 778.344L787.406 781.576L773.442 806.45L767.684 803.217L781.649 778.344Z" fill="white"/>
<path d="M814.204 773.868L819.906 777.197L805.525 801.832L799.823 798.503L814.204 773.868Z" fill="white"/>
<path d="M845.637 773.468L851.34 776.797L836.959 801.432L831.256 798.103L845.637 773.468Z" fill="white"/>
<path d="M877.079 773.07L882.781 776.398L868.4 801.033L862.698 797.704L877.079 773.07Z" fill="white"/>
<path d="M908.876 772.579L914.578 775.908L900.197 800.543L894.495 797.214L908.876 772.579Z" fill="white"/>
<path d="M940.309 772.185L946.012 775.514L931.631 800.148L925.928 796.819L940.309 772.185Z" fill="white"/>
<path d="M971.751 771.784L977.453 775.113L963.072 799.748L957.37 796.419L971.751 771.784Z" fill="white"/>
<path d="M1003.48 771.494L1009.18 774.822L994.806 799.457L989.103 796.129L1003.48 771.494Z" fill="white"/>
<path d="M1034.92 771.099L1040.62 774.428L1026.24 799.062L1020.54 795.734L1034.92 771.099Z" fill="white"/>
<path d="M1066.29 770.724L1071.99 774.053L1057.61 798.687L1051.9 795.358L1066.29 770.724Z" fill="white"/>
<path d="M1097.72 770.325L1103.43 773.654L1089.04 798.289L1083.34 794.96L1097.72 770.325Z" fill="white"/>
<path d="M1129.38 770.062L1135.09 773.391L1120.7 798.025L1115 794.696L1129.38 770.062Z" fill="white"/>
<path d="M1160.82 769.667L1166.52 772.996L1152.14 797.631L1146.44 794.302L1160.82 769.667Z" fill="white"/>
<path d="M1192.26 770.265L1197.96 773.594L1183.58 798.228L1177.88 794.9L1192.26 770.265Z" fill="white"/>
<path d="M1219.76 775.323L1225.46 778.652L1211.08 803.287L1205.38 799.958L1219.76 775.323Z" fill="white"/>
<path d="M1247.75 791.432L1253.5 794.664L1239.54 819.537L1233.78 816.305L1247.75 791.432Z" fill="white"/>
<path d="M1275.14 808.203L1280.9 811.436L1266.93 836.309L1261.18 833.077L1275.14 808.203Z" fill="white"/>
<path d="M1301.02 825.426L1306.77 828.658L1292.81 853.531L1287.05 850.3L1301.02 825.426Z" fill="white"/>
<path d="M1327.5 842.594L1333.25 845.826L1319.29 870.7L1313.53 867.467L1327.5 842.594Z" fill="white"/>
<path d="M1353.8 859.598L1359.56 862.83L1345.6 887.703L1339.84 884.471L1353.8 859.598Z" fill="white"/>
<path d="M1380.39 876.688L1386.15 879.92L1372.19 904.793L1366.43 901.561L1380.39 876.688Z" fill="white"/>
<path d="M1406.88 893.859L1412.64 897.092L1398.68 921.965L1392.92 918.733L1406.88 893.859Z" fill="white"/>
<path d="M1433.42 910.99L1439.18 914.223L1425.22 939.096L1419.46 935.864L1433.42 910.99Z" fill="white"/>
<path d="M1459.91 927.719L1465.67 930.951L1451.71 955.824L1445.95 952.593L1459.91 927.719Z" fill="white"/>
<path d="M1486.4 944.891L1492.16 948.123L1478.2 972.996L1472.44 969.764L1486.4 944.891Z" fill="white"/>
<path d="M1512.94 962.021L1518.7 965.254L1504.73 990.127L1498.97 986.895L1512.94 962.021Z" fill="white"/>
<path d="M1539.25 979.027L1545 982.26L1531.04 1007.13L1525.28 1003.9L1539.25 979.027Z" fill="white"/>
<path d="M1565.79 996.16L1571.55 999.393L1557.58 1024.27L1551.83 1021.03L1565.79 996.16Z" fill="white"/>
<path d="M1592.33 1013.29L1598.09 1016.52L1584.12 1041.39L1578.36 1038.16L1592.33 1013.29Z" fill="white"/>
<path d="M1618.91 1030.37L1624.67 1033.6L1610.71 1058.47L1604.95 1055.24L1618.91 1030.37Z" fill="white"/>
<path d="M1645.3 1047.19L1651.06 1050.42L1637.09 1075.3L1631.34 1072.06L1645.3 1047.19Z" fill="white"/>
<path d="M1671.84 1064.32L1677.6 1067.56L1663.63 1092.43L1657.88 1089.2L1671.84 1064.32Z" fill="white"/>
<path d="M1698.38 1081.46L1704.14 1084.69L1690.18 1109.56L1684.42 1106.33L1698.38 1081.46Z" fill="white"/>
<path d="M1724.93 1098.59L1730.68 1101.82L1716.72 1126.69L1710.96 1123.46L1724.93 1098.59Z" fill="white"/>
<path d="M1751.23 1115.59L1756.99 1118.82L1743.02 1143.69L1737.27 1140.46L1751.23 1115.59Z" fill="white"/>
<path d="M1777.77 1132.72L1783.53 1135.95L1769.56 1160.83L1763.81 1157.59L1777.77 1132.72Z" fill="white"/>
<path d="M1804.31 1149.85L1810.07 1153.08L1796.11 1177.96L1790.35 1174.72L1804.31 1149.85Z" fill="white"/>
<path d="M1830.98 1166.75L1836.73 1169.98L1822.77 1194.86L1817.01 1191.62L1830.98 1166.75Z" fill="white"/>
<path d="M1857.29 1183.75L1863.05 1186.98L1849.08 1211.86L1843.33 1208.62L1857.29 1183.75Z" fill="white"/>
<path d="M1883.82 1200.89L1889.58 1204.12L1875.62 1228.99L1869.86 1225.76L1883.82 1200.89Z" fill="white"/>
<path d="M1910.4 1217.95L1916.16 1221.18L1902.2 1246.05L1896.44 1242.82L1910.4 1217.95Z" fill="white"/>
<path d="M1936.68 1235.02L1942.43 1238.25L1928.47 1263.13L1922.71 1259.89L1936.68 1235.02Z" fill="white"/>
<g clip-path="url(#clip0_155_1615)">
<path d="M1082.31 408.539L1084.56 491.764" stroke="#F6F6F6" stroke-width="5.43002" stroke-miterlimit="10"/>
<path d="M972.449 543.439L978.049 750.692" stroke="#F6F6F6" stroke-width="5.43002" stroke-miterlimit="10"/>
<path d="M1199.29 537.311L1204.83 742.206" stroke="#F6F6F6" stroke-width="5.43002" stroke-miterlimit="10"/>
<path d="M1100.77 491.33L1107.77 750.579" stroke="#F6F6F6" stroke-width="5.43002" stroke-miterlimit="10"/>
<path d="M1116.96 490.889L1123.97 750.138" stroke="#F6F6F6" stroke-width="5.43002" stroke-miterlimit="10"/>
<path d="M1135.78 587.082L1140.18 749.702" stroke="#F6F6F6" stroke-width="5.43002" stroke-miterlimit="10"/>
<path d="M1151.98 586.645L1156.37 749.265" stroke="#F6F6F6" stroke-width="5.43002" stroke-miterlimit="10"/>
<path d="M1168.18 586.207L1172.58 748.827" stroke="#F6F6F6" stroke-width="5.43002" stroke-miterlimit="10"/>
<path d="M1006.18 591.32L1010.55 753.204" stroke="#F6F6F6" stroke-width="5.43002" stroke-miterlimit="10"/>
<path d="M1022.38 590.883L1026.75 752.766" stroke="#F6F6F6" stroke-width="5.43002" stroke-miterlimit="10"/>
<path d="M1038.58 590.445L1042.96 752.329" stroke="#F6F6F6" stroke-width="5.43002" stroke-miterlimit="10"/>
<path d="M1068.36 492.203L1075.36 751.453" stroke="#F6F6F6" stroke-width="5.43002" stroke-miterlimit="10"/>
<path d="M1052.15 492.641L1059.16 751.89" stroke="#F6F6F6" stroke-width="5.43002" stroke-miterlimit="10"/>
<path d="M953.535 574.316L958.407 754.613" stroke="#F6F6F6" stroke-width="5.43002" stroke-miterlimit="10"/>
<path d="M989.473 573.346L994.344 753.642" stroke="#F6F6F6" stroke-width="5.43002" stroke-miterlimit="10"/>
<path d="M956.117 751.727L992.353 750.747" stroke="#F6F6F6" stroke-width="5.43002" stroke-miterlimit="10"/>
<path d="M1183.32 568.109L1188.2 748.406" stroke="#F6F6F6" stroke-width="5.43002" stroke-miterlimit="10"/>
<path d="M1219.12 567.141L1223.99 747.437" stroke="#F6F6F6" stroke-width="5.43002" stroke-miterlimit="10"/>
<path d="M1185.9 745.518L1221.99 744.542" stroke="#F6F6F6" stroke-width="5.43002" stroke-miterlimit="10"/>
</g>
<path d="M191.086 592.104L154.776 679.844" stroke="#F6F6F6" stroke-width="4.48609" stroke-miterlimit="10"/>
<path d="M203.461 597.223L167.151 684.963" stroke="#F6F6F6" stroke-width="4.48609" stroke-miterlimit="10"/>
<path d="M228.207 607.465L191.897 695.205" stroke="#F6F6F6" stroke-width="4.48609" stroke-miterlimit="10"/>
<path d="M240.695 612.633L204.385 700.373" stroke="#F6F6F6" stroke-width="4.48609" stroke-miterlimit="10"/>
<path d="M265.441 622.873L229.131 710.613" stroke="#F6F6F6" stroke-width="4.48609" stroke-miterlimit="10"/>
<path d="M277.602 628.828L241.292 716.568" stroke="#F6F6F6" stroke-width="4.48609" stroke-miterlimit="10"/>
<path d="M54.9766 535.775L18.6666 623.516" stroke="#F6F6F6" stroke-width="4.48609" stroke-miterlimit="10"/>
<path d="M67.3516 540.896L31.0416 628.637" stroke="#F6F6F6" stroke-width="4.48609" stroke-miterlimit="10"/>
<path d="M92.0977 551.139L55.7877 638.879" stroke="#F6F6F6" stroke-width="4.48609" stroke-miterlimit="10"/>
<path d="M104.586 556.305L68.276 644.045" stroke="#F6F6F6" stroke-width="4.48609" stroke-miterlimit="10"/>
<path d="M129.332 566.547L93.0221 654.287" stroke="#F6F6F6" stroke-width="4.48609" stroke-miterlimit="10"/>
<path d="M141.492 572.5L105.182 660.24" stroke="#F6F6F6" stroke-width="4.48609" stroke-miterlimit="10"/>
<path d="M6.60156 617.336L254.074 719.749" stroke="#F6F6F6" stroke-width="4.48609" stroke-miterlimit="10"/>
<path d="M41.9805 531.846L289.453 634.258" stroke="#F6F6F6" stroke-width="4.48609" stroke-miterlimit="10"/>
<path d="M53.5039 522.781L290.852 621.004" stroke="#F6F6F6" stroke-width="4.48609" stroke-miterlimit="10"/>
<path d="M153.355 548.293L202.85 568.776" stroke="#F6F6F6" stroke-width="4.48609" stroke-miterlimit="10"/>
<path d="M171.922 526.99L205.781 541.002" stroke="#F6F6F6" stroke-width="4.48609" stroke-miterlimit="10"/>
<path d="M176.738 544.004L189.112 549.125" stroke="#F6F6F6" stroke-width="4.48609" stroke-miterlimit="10"/>
<path d="M4.5 643.504L258.5 749.004L719.5 670.004L1932.5 1276.5" stroke="white" stroke-width="4.5"/>
<path d="M2 2.00391L298.5 160.504L1027.5 262.504L1930 912.004" stroke="white" stroke-width="4.5"/>
<path d="M133.091 874.798L141.621 901.73L135.387 903.705L126.857 876.773L133.091 874.798Z" fill="white"/>
<path d="M102.333 882.043L110.863 908.975L104.629 910.949L96.0988 884.017L102.333 882.043Z" fill="white"/>
<path d="M71.5713 889.287L80.1016 916.219L73.8673 918.193L65.3371 891.261L71.5713 889.287Z" fill="white"/>
<path d="M40.8096 896.531L49.3398 923.463L43.1056 925.437L34.5754 898.505L40.8096 896.531Z" fill="white"/>
<path d="M163.207 867.337L171.734 894.27L165.5 896.243L156.973 869.311L163.207 867.337Z" fill="white"/>
<path d="M193.543 859.765L202.07 886.697L195.836 888.671L187.309 861.739L193.543 859.765Z" fill="white"/>
<path d="M223.849 852.152L232.379 879.084L226.145 881.059L217.614 854.127L223.849 852.152Z" fill="white"/>
<path d="M254.141 844.359L262.668 871.291L256.434 873.265L247.906 846.333L254.141 844.359Z" fill="white"/>
<path d="M284.223 836.867L292.75 863.799L286.516 865.773L277.988 838.841L284.223 836.867Z" fill="white"/>
<path d="M314.562 829.293L323.09 856.225L316.856 858.199L308.328 831.266L314.562 829.293Z" fill="white"/>
<path d="M344.898 821.714L353.426 848.646L347.191 850.62L338.664 823.688L344.898 821.714Z" fill="white"/>
<path d="M375.23 814.138L383.758 841.07L377.524 843.044L368.996 816.112L375.23 814.138Z" fill="white"/>
<path d="M405.458 806.281L413.988 833.213L407.754 835.187L399.224 808.255L405.458 806.281Z" fill="white"/>
<path d="M435.57 798.82L444.098 825.752L437.863 827.726L429.336 800.794L435.57 798.82Z" fill="white"/>
<path d="M465.91 791.244L474.438 818.176L468.203 820.15L459.676 793.218L465.91 791.244Z" fill="white"/>
<path d="M496.242 783.667L504.77 810.6L498.535 812.574L490.008 785.641L496.242 783.667Z" fill="white"/>
<path d="M526.582 776.089L535.109 803.021L528.875 804.995L520.348 778.063L526.582 776.089Z" fill="white"/>
<path d="M556.918 768.513L565.445 795.445L559.211 797.419L550.684 770.487L556.918 768.513Z" fill="white"/>
<path d="M586.926 760.769L595.453 787.701L589.219 789.675L580.691 762.743L586.926 760.769Z" fill="white"/>
<path d="M617.262 753.193L625.789 780.125L619.555 782.099L611.027 755.167L617.262 753.193Z" fill="white"/>
<path d="M647.598 745.619L656.125 772.551L649.891 774.525L641.363 747.593L647.598 745.619Z" fill="white"/>
<path d="M677.934 738.042L686.461 764.975L680.227 766.949L671.699 740.016L677.934 738.042Z" fill="white"/>
<defs>
<clipPath id="clip0_155_1615">
<rect width="285.426" height="342.599" fill="white" transform="translate(946.5 412.213) rotate(-1.54774)"/>
</clipPath>
</defs>
</svg>
