<svg width="1917" height="1541" viewBox="0 0 1917 1541" fill="none" xmlns="http://www.w3.org/2000/svg">
<path fill-rule="evenodd" clip-rule="evenodd" d="M444.314 544.931L436.853 545.128L436.716 539.968L444.177 539.771L444.314 544.931ZM455.03 556.796L427.028 557.675L426.866 552.516L454.868 551.636L455.03 556.796ZM465.747 568.66L417.051 570.429L416.863 565.271L465.559 563.501L465.747 568.66ZM456.47 581.307L427.396 582.348L427.211 577.189L456.286 576.149L456.47 581.307ZM475.509 592.66L409.389 595.199L409.191 590.04L475.311 587.502L475.509 592.66ZM489.125 604.457L396.486 608.021L396.288 602.863L488.927 599.299L489.125 604.457ZM440.47 634.339L439.673 612.869L444.78 612.679L445.577 634.149L440.47 634.339Z" fill="white"/>
<path d="M881.203 538.702L875.008 539.801L879.754 566.563L885.949 565.464L881.203 538.702Z" fill="white"/>
<path d="M905.906 522.923L899.711 524.021L904.457 550.783L910.652 549.685L905.906 522.923Z" fill="white"/>
<path d="M930.609 507.143L924.414 508.242L929.16 535.004L935.355 533.905L930.609 507.143Z" fill="white"/>
<path d="M955.316 491.364L949.121 492.463L953.867 519.225L960.062 518.126L955.316 491.364Z" fill="white"/>
<path d="M980.015 475.585L973.82 476.684L978.567 503.446L984.762 502.347L980.015 475.585Z" fill="white"/>
<path d="M1004.72 459.806L998.527 460.904L1003.27 487.666L1009.47 486.568L1004.72 459.806Z" fill="white"/>
<path d="M1029.42 444.026L1023.23 445.125L1027.97 471.887L1034.17 470.788L1029.42 444.026Z" fill="white"/>
<path d="M1054.13 428.249L1047.93 429.348L1052.68 456.11L1058.87 455.011L1054.13 428.249Z" fill="white"/>
<path d="M1078.83 412.468L1072.63 413.566L1077.38 440.328L1083.57 439.23L1078.83 412.468Z" fill="white"/>
<path d="M1103.53 396.69L1097.34 397.789L1102.08 424.551L1108.28 423.452L1103.53 396.69Z" fill="white"/>
<path d="M1128.23 380.911L1122.04 382.01L1126.79 408.772L1132.98 407.673L1128.23 380.911Z" fill="white"/>
<path d="M1152.94 365.132L1146.74 366.23L1151.49 392.992L1157.68 391.894L1152.94 365.132Z" fill="white"/>
<path d="M1177.64 349.352L1171.45 350.451L1176.19 377.213L1182.39 376.114L1177.64 349.352Z" fill="white"/>
<path d="M854.835 553.132L848.641 554.23L853.384 580.991L859.579 579.893L854.835 553.132Z" fill="white"/>
<path d="M828.355 567.399L822.16 568.498L826.907 595.26L833.101 594.161L828.355 567.399Z" fill="white"/>
<path d="M802.085 581.843L795.891 582.941L800.637 609.703L806.832 608.605L802.085 581.843Z" fill="white"/>
<path d="M775.671 596.025L769.477 597.123L774.22 623.884L780.415 622.786L775.671 596.025Z" fill="white"/>
<path d="M749.238 610.546L743.043 611.645L747.789 638.407L753.984 637.308L749.238 610.546Z" fill="white"/>
<path d="M722.914 624.749L716.719 625.848L721.465 652.61L727.66 651.511L722.914 624.749Z" fill="white"/>
<path d="M696.644 639.198L690.449 640.297L695.196 667.059L701.39 665.96L696.644 639.198Z" fill="white"/>
<path d="M670.07 653.444L663.875 654.543L668.621 681.305L674.816 680.206L670.07 653.444Z" fill="white"/>
<path d="M643.714 667.865L637.52 668.963L642.263 695.724L648.458 694.626L643.714 667.865Z" fill="white"/>
<path d="M617.476 682.097L611.281 683.195L616.028 709.957L622.222 708.858L617.476 682.097Z" fill="white"/>
<path d="M590.949 696.593L584.754 697.691L589.5 724.454L595.695 723.355L590.949 696.593Z" fill="white"/>
<path d="M564.629 710.796L558.434 711.895L563.18 738.656L569.375 737.558L564.629 710.796Z" fill="white"/>
<path d="M538.351 725.243L532.156 726.342L536.903 753.104L543.098 752.005L538.351 725.243Z" fill="white"/>
<path d="M511.828 739.737L505.633 740.836L510.379 767.598L516.574 766.499L511.828 739.737Z" fill="white"/>
<path d="M485.507 753.94L479.312 755.039L484.059 781.801L490.254 780.702L485.507 753.94Z" fill="white"/>
<path d="M459.234 768.392L453.039 769.49L457.785 796.252L463.98 795.153L459.234 768.392Z" fill="white"/>
<path d="M432.589 782.599L426.395 783.697L431.138 810.458L437.333 809.36L432.589 782.599Z" fill="white"/>
<path d="M406.386 797.087L400.191 798.186L404.938 824.948L411.133 823.849L406.386 797.087Z" fill="white"/>
<path d="M380.066 811.29L373.871 812.389L378.617 839.151L384.812 838.052L380.066 811.29Z" fill="white"/>
<path d="M353.468 825.742L347.273 826.84L352.017 853.601L358.212 852.503L353.468 825.742Z" fill="white"/>
<path d="M327.222 839.987L321.027 841.086L325.774 867.848L331.969 866.749L327.222 839.987Z" fill="white"/>
<path d="M300.945 854.436L294.75 855.535L299.496 882.297L305.691 881.199L300.945 854.436Z" fill="white"/>
<path d="M273.472 853.827L267.277 854.926L272.024 881.688L278.219 880.589L273.472 853.827Z" fill="white"/>
<path d="M245.5 843.122L239.305 844.221L244.051 870.983L250.246 869.884L245.5 843.122Z" fill="white"/>
<path d="M217.519 832.415L211.324 833.514L216.071 860.276L222.265 859.177L217.519 832.415Z" fill="white"/>
<path d="M189.254 821.503L183.059 822.602L187.805 849.364L194 848.265L189.254 821.503Z" fill="white"/>
<path d="M161.277 810.798L155.082 811.896L159.828 838.658L166.023 837.56L161.277 810.798Z" fill="white"/>
<path d="M133.3 800.089L127.105 801.188L131.852 827.95L138.047 826.851L133.3 800.089Z" fill="white"/>
<path d="M105.019 789.382L98.8242 790.48L103.568 817.241L109.763 816.143L105.019 789.382Z" fill="white"/>
<path d="M77.0423 778.671L70.8477 779.77L75.5915 806.53L81.7862 805.432L77.0423 778.671Z" fill="white"/>
<path d="M49.1246 768.013L42.9297 769.111L47.676 795.873L53.8709 794.775L49.1246 768.013Z" fill="white"/>
<path d="M21.1441 757.304L14.9492 758.402L19.6956 785.164L25.8905 784.066L21.1441 757.304Z" fill="white"/>
<path d="M1041.45 926.112L1027.52 946.975L1032.35 950.198L1046.28 929.335L1041.45 926.112Z" fill="white"/>
<path d="M1017.6 912.312L1003.68 933.176L1008.51 936.398L1022.43 915.535L1017.6 912.312Z" fill="white"/>
<path d="M993.601 898.363L979.68 919.227L984.509 922.449L998.431 901.586L993.601 898.363Z" fill="white"/>
<path d="M969.635 884.392L955.711 905.254L960.54 908.477L974.464 887.615L969.635 884.392Z" fill="white"/>
<path d="M945.726 870.273L931.805 891.137L936.634 894.359L950.555 873.496L945.726 870.273Z" fill="white"/>
<path d="M921.921 856.451L908 877.314L912.829 880.537L926.751 859.674L921.921 856.451Z" fill="white"/>
<path d="M897.917 842.502L883.996 863.365L888.826 866.588L902.747 845.725L897.917 842.502Z" fill="white"/>
<path d="M873.921 828.553L860 849.416L864.829 852.639L878.751 831.775L873.921 828.553Z" fill="white"/>
<path d="M849.913 814.6L835.992 835.463L840.822 838.685L854.743 817.822L849.913 814.6Z" fill="white"/>
<path d="M826.08 800.436L812.156 821.299L816.985 824.522L830.909 803.659L826.08 800.436Z" fill="white"/>
<path d="M802.242 786.639L788.32 807.502L793.15 810.724L807.071 789.861L802.242 786.639Z" fill="white"/>
<path d="M778.234 772.689L764.312 793.553L769.142 796.775L783.063 775.912L778.234 772.689Z" fill="white"/>
<path d="M754.238 758.736L740.316 779.6L745.146 782.822L759.067 761.959L754.238 758.736Z" fill="white"/>
<path d="M730.234 744.785L716.312 765.648L721.142 768.871L735.063 748.008L730.234 744.785Z" fill="white"/>
<path d="M706.234 730.836L692.312 751.699L697.142 754.922L711.063 734.059L706.234 730.836Z" fill="white"/>
<path d="M682.554 716.82L668.633 737.684L673.462 740.906L687.384 720.043L682.554 716.82Z" fill="white"/>
<path d="M658.554 702.873L644.633 723.736L649.462 726.959L663.384 706.096L658.554 702.873Z" fill="white"/>
<path d="M1349.31 1107.69L1335.39 1128.55L1340.22 1131.78L1354.14 1110.91L1349.31 1107.69Z" fill="white"/>
<path d="M1373.66 1120.78L1359.74 1141.64L1364.57 1144.86L1378.49 1124L1373.66 1120.78Z" fill="white"/>
<path d="M1398.02 1133.87L1384.09 1154.73L1388.92 1157.95L1402.84 1137.09L1398.02 1133.87Z" fill="white"/>
<path d="M1422.37 1146.95L1408.45 1167.81L1413.28 1171.04L1427.2 1150.17L1422.37 1146.95Z" fill="white"/>
<path d="M1446.72 1160.04L1432.8 1180.9L1437.63 1184.12L1451.55 1163.26L1446.72 1160.04Z" fill="white"/>
<path d="M1471.08 1173.12L1457.16 1193.99L1461.99 1197.21L1475.91 1176.35L1471.08 1173.12Z" fill="white"/>
<path d="M1495.43 1186.21L1481.51 1207.08L1486.34 1210.3L1500.26 1189.44L1495.43 1186.21Z" fill="white"/>
<path d="M1519.78 1199.3L1505.86 1220.16L1510.69 1223.39L1524.61 1202.52L1519.78 1199.3Z" fill="white"/>
<path d="M1544.14 1212.39L1530.21 1233.25L1535.04 1236.47L1548.97 1215.61L1544.14 1212.39Z" fill="white"/>
<path d="M1568.49 1225.47L1554.57 1246.34L1559.4 1249.56L1573.32 1228.7L1568.49 1225.47Z" fill="white"/>
<path d="M1592.84 1238.56L1578.92 1259.42L1583.75 1262.65L1597.67 1241.78L1592.84 1238.56Z" fill="white"/>
<path d="M1617.2 1251.65L1603.28 1272.51L1608.11 1275.73L1622.03 1254.87L1617.2 1251.65Z" fill="white"/>
<path d="M1641.55 1264.73L1627.63 1285.6L1632.46 1288.82L1646.38 1267.96L1641.55 1264.73Z" fill="white"/>
<path d="M1665.9 1277.82L1651.98 1298.69L1656.81 1301.91L1670.73 1281.04L1665.9 1277.82Z" fill="white"/>
<path d="M1690.26 1290.91L1676.34 1311.77L1681.17 1314.99L1695.09 1294.13L1690.26 1290.91Z" fill="white"/>
<path d="M1714.61 1304L1700.69 1324.86L1705.52 1328.08L1719.44 1307.22L1714.61 1304Z" fill="white"/>
<path d="M1738.96 1317.08L1725.04 1337.95L1729.87 1341.17L1743.79 1320.3L1738.96 1317.08Z" fill="white"/>
<path d="M1763.32 1330.17L1749.39 1351.03L1754.22 1354.26L1768.15 1333.39L1763.32 1330.17Z" fill="white"/>
<path d="M1787.67 1343.26L1773.75 1364.12L1778.58 1367.34L1792.5 1346.48L1787.67 1343.26Z" fill="white"/>
<path d="M1812.02 1356.34L1798.1 1377.21L1802.93 1380.43L1816.85 1359.57L1812.02 1356.34Z" fill="white"/>
<path d="M1836.38 1369.43L1822.46 1390.29L1827.29 1393.52L1841.21 1372.65L1836.38 1369.43Z" fill="white"/>
<path d="M1860.73 1382.52L1846.81 1403.38L1851.64 1406.6L1865.56 1385.74L1860.73 1382.52Z" fill="white"/>
<path d="M1885.09 1395.61L1871.16 1416.47L1875.99 1419.69L1889.91 1398.83L1885.09 1395.61Z" fill="white"/>
<path d="M1909.44 1408.69L1895.52 1429.55L1900.35 1432.78L1914.27 1411.91L1909.44 1408.69Z" fill="white"/>
<path d="M1325.31 1093.74L1311.39 1114.61L1316.22 1117.83L1330.14 1096.97L1325.31 1093.74Z" fill="white"/>
<path d="M1301.31 1079.79L1287.39 1100.66L1292.22 1103.88L1306.14 1083.02L1301.31 1079.79Z" fill="white"/>
<path d="M1277.47 1065.63L1263.54 1086.49L1268.37 1089.72L1282.3 1068.85L1277.47 1065.63Z" fill="white"/>
<path d="M1253.63 1051.83L1239.71 1072.69L1244.54 1075.92L1258.46 1055.05L1253.63 1051.83Z" fill="white"/>
<path d="M1229.63 1037.88L1215.71 1058.74L1220.54 1061.97L1234.46 1041.1L1229.63 1037.88Z" fill="white"/>
<path d="M1205.62 1023.93L1191.7 1044.79L1196.53 1048.01L1210.45 1027.15L1205.62 1023.93Z" fill="white"/>
<path d="M1181.63 1009.98L1167.71 1030.84L1172.54 1034.07L1186.46 1013.2L1181.63 1009.98Z" fill="white"/>
<path d="M1157.62 996.029L1143.7 1016.89L1148.53 1020.12L1162.45 999.252L1157.62 996.029Z" fill="white"/>
<path d="M1133.94 982.016L1120.02 1002.88L1124.85 1006.1L1138.77 985.238L1133.94 982.016Z" fill="white"/>
<path d="M1109.95 968.064L1096.03 988.928L1100.86 992.15L1114.78 971.287L1109.95 968.064Z" fill="white"/>
<path d="M1085.94 954.115L1072.02 974.979L1076.85 978.201L1090.77 957.338L1085.94 954.115Z" fill="white"/>
<path d="M1061.94 940.164L1048.02 961.027L1052.85 964.25L1066.77 943.387L1061.94 940.164Z" fill="white"/>
<path d="M1276.46 735.703L1282.64 839.015" stroke="#F1F2F2" stroke-width="6.18118" stroke-miterlimit="10"/>
<path d="M1294.89 734.689L1301.07 838.001" stroke="#F1F2F2" stroke-width="6.18118" stroke-miterlimit="10"/>
<path d="M1311.97 733.754L1318.32 837.056" stroke="#F1F2F2" stroke-width="6.18118" stroke-miterlimit="10"/>
<path d="M1330.39 732.744L1336.74 836.046" stroke="#F1F2F2" stroke-width="6.18118" stroke-miterlimit="10"/>
<path d="M1325.77 648.662L1327.46 667.049" stroke="#F1F2F2" stroke-width="6.18118" stroke-miterlimit="10"/>
<path d="M1349.42 742.615L1355.17 835.031" stroke="#F1F2F2" stroke-width="6.18118" stroke-miterlimit="10"/>
<path d="M1367.84 741.604L1373.59 834.019" stroke="#F1F2F2" stroke-width="6.18118" stroke-miterlimit="10"/>
<path d="M1386.26 740.594L1392.01 833.009" stroke="#F1F2F2" stroke-width="6.18118" stroke-miterlimit="10"/>
<path d="M1404.69 739.58L1410.44 831.996" stroke="#F1F2F2" stroke-width="6.18118" stroke-miterlimit="10"/>
<path d="M1423.11 738.568L1427.44 805.191" stroke="#F1F2F2" stroke-width="6.18118" stroke-miterlimit="10"/>
<path d="M1441.54 737.557L1444.6 781.066" stroke="#F1F2F2" stroke-width="6.18118" stroke-miterlimit="10"/>
<path d="M1459.96 736.543L1464.25 802.328" stroke="#F1F2F2" stroke-width="6.18118" stroke-miterlimit="10"/>
<path d="M1478.38 735.533L1484.13 827.949" stroke="#F1F2F2" stroke-width="6.18118" stroke-miterlimit="10"/>
<path d="M1496.8 734.521L1502.55 826.937" stroke="#F1F2F2" stroke-width="6.18118" stroke-miterlimit="10"/>
<path d="M1516.57 733.432L1522.32 825.847" stroke="#F1F2F2" stroke-width="6.18118" stroke-miterlimit="10"/>
<path d="M1533.65 732.496L1539.23 824.921" stroke="#F1F2F2" stroke-width="6.18118" stroke-miterlimit="10"/>
<path d="M1550.98 720.625L1557.16 823.936" stroke="#F1F2F2" stroke-width="6.18118" stroke-miterlimit="10"/>
<path d="M1569.4 719.611L1575.58 822.923" stroke="#F1F2F2" stroke-width="6.18118" stroke-miterlimit="10"/>
<path d="M1586.48 718.672L1592.83 821.974" stroke="#F1F2F2" stroke-width="6.18118" stroke-miterlimit="10"/>
<path d="M1604.9 717.66L1611.25 820.962" stroke="#F1F2F2" stroke-width="6.18118" stroke-miterlimit="10"/>
<path d="M1625.21 689.836L1262.8 710.249" stroke="#F1F2F2" stroke-width="6.18118" stroke-miterlimit="10"/>
<path d="M1561.17 676.892L1322.88 690.654" stroke="#F1F2F2" stroke-width="6.18118" stroke-miterlimit="10"/>
<path d="M1465.98 720.756L1425.99 723.625" stroke="#F1F2F2" stroke-width="6.18118" stroke-miterlimit="10"/>
<path d="M1344.8 640.227L1346.72 665.992" stroke="#F1F2F2" stroke-width="6.18118" stroke-miterlimit="10"/>
<path d="M1364.01 632.115L1366.48 664.906" stroke="#F1F2F2" stroke-width="6.18118" stroke-miterlimit="10"/>
<path d="M1381.21 627.141L1383.9 663.951" stroke="#F1F2F2" stroke-width="6.18118" stroke-miterlimit="10"/>
<path d="M1398.56 618.961L1401.48 662.982" stroke="#F1F2F2" stroke-width="6.18118" stroke-miterlimit="10"/>
<path d="M1415.28 611.322L1418.74 662.034" stroke="#F1F2F2" stroke-width="6.18118" stroke-miterlimit="10"/>
<path d="M1434.39 601.373L1438.34 660.961" stroke="#F1F2F2" stroke-width="6.18118" stroke-miterlimit="10"/>
<path d="M1548.32 635.598L1548.71 654.896" stroke="#F1F2F2" stroke-width="6.18118" stroke-miterlimit="10"/>
<path d="M1528.49 629.297L1529.45 655.955" stroke="#F1F2F2" stroke-width="6.18118" stroke-miterlimit="10"/>
<path d="M1508.51 623.338L1509.69 657.04" stroke="#F1F2F2" stroke-width="6.18118" stroke-miterlimit="10"/>
<path d="M1490.87 620.278L1492.27 657.999" stroke="#F1F2F2" stroke-width="6.18118" stroke-miterlimit="10"/>
<path d="M1472.72 614.051L1474.68 658.964" stroke="#F1F2F2" stroke-width="6.18118" stroke-miterlimit="10"/>
<path d="M1455.26 608.289L1457.43 659.912" stroke="#F1F2F2" stroke-width="6.18118" stroke-miterlimit="10"/>
<g clip-path="url(#clip0_157_1891)">
<path d="M358.434 550.081C350.507 526.021 277.888 509.199 214.752 510.899C151.76 512.736 81.995 531.522 75.2683 556.085" stroke="#F6F6F6" stroke-width="5.19509" stroke-miterlimit="10"/>
<path d="M67.3842 613.678L368.544 605.396" stroke="#F6F6F6" stroke-width="5.19509" stroke-miterlimit="10"/>
<path d="M55.2119 560.53C55.2119 560.53 130.773 542.306 216.459 540.049C305.806 537.561 376.441 554.009 376.441 554.009" stroke="#F6F6F6" stroke-width="5.19509" stroke-miterlimit="10"/>
<path d="M67.8359 557.678L69.2731 615.884" stroke="#F6F6F6" stroke-width="5.19509" stroke-miterlimit="10"/>
<path d="M365.285 553.297L366.625 607.557" stroke="#F6F6F6" stroke-width="5.19509" stroke-miterlimit="10"/>
<path d="M349.668 549.029L351.074 605.968" stroke="#F6F6F6" stroke-width="5.19509" stroke-miterlimit="10"/>
<path d="M332.816 546.344L334.268 605.114" stroke="#F6F6F6" stroke-width="5.19509" stroke-miterlimit="10"/>
<path d="M315.82 543.377L317.379 606.516" stroke="#F6F6F6" stroke-width="5.19509" stroke-miterlimit="10"/>
<path d="M285.055 542.303L286.621 605.724" stroke="#F6F6F6" stroke-width="5.19509" stroke-miterlimit="10"/>
<path d="M253.125 539.99L254.788 607.358" stroke="#F6F6F6" stroke-width="5.19509" stroke-miterlimit="10"/>
<path d="M82.2891 554.787L83.6845 611.303" stroke="#F6F6F6" stroke-width="5.19509" stroke-miterlimit="10"/>
<path d="M98.8594 551.977L100.314 610.888" stroke="#F6F6F6" stroke-width="5.19509" stroke-miterlimit="10"/>
<path d="M115.586 549.73L117.086 610.474" stroke="#F6F6F6" stroke-width="5.19509" stroke-miterlimit="10"/>
<path d="M146.242 546.154L147.812 609.717" stroke="#F6F6F6" stroke-width="5.19509" stroke-miterlimit="10"/>
<path d="M176.492 543.434L178.11 608.969" stroke="#F6F6F6" stroke-width="5.19509" stroke-miterlimit="10"/>
<path d="M165.128 642.853C167.084 642.1 201.323 623.767 201.323 623.767L247.124 622.496L278.839 639.058" stroke="#F6F6F6" stroke-width="5.19509" stroke-miterlimit="10"/>
</g>
<path d="M1 643.406C32.6 644.206 674.5 634.406 719 634.406L1254 872.406L1920 835.906" stroke="white" stroke-width="4.5"/>
<defs>
<clipPath id="clip0_157_1891">
<rect width="360.343" height="165.651" fill="white" transform="translate(35 512.801) rotate(-1.4144)"/>
</clipPath>
</defs>
</svg>
