<svg width="1985" height="1298" viewBox="0 0 1985 1298" fill="none" xmlns="http://www.w3.org/2000/svg">
<path d="M26.5 584.339L375.413 727.696L376.065 727.661L877.851 671.147L1883.84 1187.87L1886.5 1182.5L878.824 664.883L376.404 721.758L28.504 579.001L26.5 584.339Z" fill="white"/>
<path d="M1132.33 486.023L1137.54 488.753L1015.16 722.079L1009.95 719.349L1132.33 486.023Z" fill="white"/>
<path d="M1170.01 505.821L1175.21 508.551L1052.84 741.877L1047.63 739.147L1170.01 505.821Z" fill="white"/>
<path d="M1208.93 526.401L1214.13 529.131L1091.75 762.457L1086.55 759.727L1208.93 526.401Z" fill="white"/>
<path d="M1141.77 604.174L1146.97 606.903L1132.11 635.238L1126.91 632.508L1141.77 604.174Z" fill="white"/>
<path d="M1119.68 648.909L1124.88 651.639L1110.02 679.973L1104.82 677.244L1119.68 648.909Z" fill="white"/>
<path d="M1164.97 560.187L1170.17 562.917L1155.31 591.252L1150.11 588.522L1164.97 560.187Z" fill="white"/>
<path d="M1188.19 517.945L1193.4 520.675L1178.54 549.009L1173.33 546.28L1188.19 517.945Z" fill="white"/>
<path d="M1102.87 586.997L1108.07 589.727L1093.21 618.061L1088.01 615.331L1102.87 586.997Z" fill="white"/>
<path d="M1080.77 631.731L1085.97 634.461L1071.11 662.795L1065.91 660.066L1080.77 631.731Z" fill="white"/>
<path d="M1125.78 542.858L1130.98 545.588L1116.12 573.922L1110.91 571.193L1125.78 542.858Z" fill="white"/>
<path d="M1149.28 500.766L1154.49 503.495L1139.62 531.83L1134.42 529.1L1149.28 500.766Z" fill="white"/>
<path d="M1228.09 536.484L1233.29 539.214L1110.91 772.54L1105.71 769.81L1228.09 536.484Z" fill="white"/>
<path d="M1225.08 612.214L1230.28 614.943L1139.6 787.842L1134.39 785.112L1225.08 612.214Z" fill="white"/>
<path d="M1244.24 622.292L1249.45 625.021L1158.76 797.92L1153.56 795.19L1244.24 622.292Z" fill="white"/>
<path d="M1263.41 632.371L1268.62 635.101L1177.93 807.999L1172.73 805.269L1263.41 632.371Z" fill="white"/>
<path d="M1278.81 646.961L1304.26 673.667L1300.01 677.721L1274.56 651.016L1278.81 646.961Z" fill="white"/>
<path d="M1268.63 667.451L1294.08 694.156L1289.83 698.211L1264.38 671.505L1268.63 667.451Z" fill="white"/>
<path d="M1258.14 688.219L1283.6 714.925L1279.34 718.979L1253.89 692.274L1258.14 688.219Z" fill="white"/>
<path d="M1247.9 708.75L1273.36 735.455L1269.1 739.51L1243.65 712.804L1247.9 708.75Z" fill="white"/>
<path d="M1228.21 750.472L1253.66 777.178L1249.4 781.232L1223.95 754.527L1228.21 750.472Z" fill="white"/>
<path d="M1236.13 728.881L1261.58 755.586L1257.32 759.64L1231.87 732.935L1236.13 728.881Z" fill="white"/>
<path d="M1219.79 772.074L1245.25 798.779L1240.99 802.834L1215.54 776.128L1219.79 772.074Z" fill="white"/>
<path d="M1208.26 791.982L1233.71 818.688L1229.45 822.742L1204 796.036L1208.26 791.982Z" fill="white"/>
<path d="M262.313 462.26L267.08 464.396L198.6 617.236L193.833 615.1L262.313 462.26Z" fill="white"/>
<path d="M408.114 571.235L412.881 573.371L360.686 689.864L355.92 687.728L408.114 571.235Z" fill="white"/>
<path d="M394.309 565.183L399.076 567.319L346.882 683.812L342.115 681.676L394.309 565.183Z" fill="white"/>
<path d="M224.508 489.139L229.275 491.274L177.081 607.767L172.314 605.631L224.508 489.139Z" fill="white"/>
<path d="M210.829 482.79L215.596 484.926L163.401 601.418L158.634 599.282L210.829 482.79Z" fill="white"/>
<path d="M281.165 463.578L285.932 465.714L214.648 624.811L209.881 622.675L281.165 463.578Z" fill="white"/>
<path d="M303.651 456.712L308.418 458.848L230.861 631.948L226.094 629.812L303.651 456.712Z" fill="white"/>
<path d="M324.405 453.604L329.172 455.74L247.076 638.97L242.309 636.834L324.405 453.604Z" fill="white"/>
<path d="M345.354 449.8L350.121 451.936L285.112 597.03L280.345 594.894L345.354 449.8Z" fill="white"/>
<path d="M356.507 468.177L361.273 470.312L279.177 653.542L274.411 651.406L356.507 468.177Z" fill="white"/>
<path d="M368.293 485.658L373.061 487.794L295.503 660.894L290.736 658.758L368.293 485.658Z" fill="white"/>
<path d="M378.044 506.787L382.811 508.923L311.527 668.02L306.76 665.884L378.044 506.787Z" fill="white"/>
<path d="M391.6 520.143L396.367 522.279L327.887 675.12L323.12 672.984L391.6 520.143Z" fill="white"/>
<path d="M435.311 551.218L439.41 548.384L354.676 424.742L214.003 447.611L214.59 452.484L352.037 430.44L435.311 551.218Z" fill="white"/>
<path d="M444.082 531.79L448.181 528.956L363.448 405.314L222.757 427.857L223.687 433.039L360.809 411.013L444.082 531.79Z" fill="white"/>
<path d="M471.117 262.861L478.234 266.856L460.973 297.603L453.856 293.608L471.117 262.861Z" fill="white"/>
<path d="M497.234 291.813L504.352 295.808L487.094 326.554L479.976 322.559L497.234 291.813Z" fill="white"/>
<path d="M523.56 320.616L530.678 324.611L513.416 355.358L506.299 351.362L523.56 320.616Z" fill="white"/>
<path d="M549.562 349.553L556.68 353.549L539.418 384.296L532.301 380.3L549.562 349.553Z" fill="white"/>
<path d="M575.842 378.212L582.959 382.207L565.701 412.954L558.584 408.959L575.842 378.212Z" fill="white"/>
<path d="M602.006 407.308L609.123 411.304L591.862 442.051L584.744 438.055L602.006 407.308Z" fill="white"/>
<path d="M628.168 435.959L635.285 439.955L618.024 470.702L610.906 466.706L628.168 435.959Z" fill="white"/>
<path d="M654.168 464.9L661.285 468.896L644.024 499.642L636.906 495.647L654.168 464.9Z" fill="white"/>
<path d="M680.613 493.713L687.73 497.709L670.469 528.456L663.352 524.46L680.613 493.713Z" fill="white"/>
<path d="M706.73 522.647L713.848 526.642L696.59 557.388L689.472 553.393L706.73 522.647Z" fill="white"/>
<path d="M732.779 551.304L739.896 555.3L722.635 586.047L715.518 582.051L732.779 551.304Z" fill="white"/>
<path d="M759.062 580.408L766.18 584.403L748.918 615.15L741.801 611.154L759.062 580.408Z" fill="white"/>
<path d="M785.223 609.059L792.34 613.055L775.078 643.801L767.961 639.806L785.223 609.059Z" fill="white"/>
<path d="M811.226 637.996L818.344 641.992L801.082 672.739L793.965 668.743L811.226 637.996Z" fill="white"/>
<path d="M837.512 667.095L844.629 671.091L827.367 701.838L820.25 697.842L837.512 667.095Z" fill="white"/>
<path d="M863.668 695.751L870.785 699.747L853.524 730.494L846.406 726.498L863.668 695.751Z" fill="white"/>
<path d="M889.67 724.689L896.787 728.685L879.526 759.431L872.408 755.436L889.67 724.689Z" fill="white"/>
<path d="M916.219 753.484L923.336 757.479L906.078 788.225L898.961 784.23L916.219 753.484Z" fill="white"/>
<path d="M942.117 782.442L949.234 786.438L931.973 817.184L924.856 813.189L942.117 782.442Z" fill="white"/>
<path d="M968.281 811.095L975.398 815.091L958.137 845.838L951.02 841.842L968.281 811.095Z" fill="white"/>
<path d="M994.666 840.17L1001.78 844.165L984.525 874.912L977.408 870.917L994.666 840.17Z" fill="white"/>
<path d="M1020.73 868.848L1027.85 872.844L1010.59 903.59L1003.47 899.595L1020.73 868.848Z" fill="white"/>
<path d="M1046.73 897.79L1053.84 901.786L1036.58 932.533L1029.47 928.537L1046.73 897.79Z" fill="white"/>
<path d="M1080.63 908.794L1087.75 912.79L1070.49 943.537L1063.37 939.541L1080.63 908.794Z" fill="white"/>
<path d="M1119.48 907.649L1126.59 911.645L1109.33 942.391L1102.22 938.396L1119.48 907.649Z" fill="white"/>
<path d="M1158.32 906.502L1165.44 910.498L1148.18 941.245L1141.06 937.249L1158.32 906.502Z" fill="white"/>
<path d="M1197.62 905.23L1204.73 909.226L1187.47 939.972L1180.35 935.977L1197.62 905.23Z" fill="white"/>
<path d="M1236.46 904.088L1243.58 908.084L1226.31 938.831L1219.2 934.835L1236.46 904.088Z" fill="white"/>
<path d="M1275.31 902.941L1282.42 906.937L1265.16 937.683L1258.05 933.688L1275.31 902.941Z" fill="white"/>
<path d="M1314.52 901.921L1321.64 905.916L1304.38 936.663L1297.27 932.668L1314.52 901.921Z" fill="white"/>
<path d="M1353.37 900.774L1360.49 904.769L1343.23 935.515L1336.11 931.52L1353.37 900.774Z" fill="white"/>
<path d="M1392.13 899.664L1399.25 903.66L1381.99 934.407L1374.87 930.411L1392.13 899.664Z" fill="white"/>
<path d="M1430.98 898.516L1438.09 902.512L1420.83 933.258L1413.72 929.263L1430.98 898.516Z" fill="white"/>
<path d="M1470.1 897.533L1477.22 901.528L1459.96 932.275L1452.84 928.279L1470.1 897.533Z" fill="white"/>
<path d="M1508.95 896.386L1516.07 900.382L1498.8 931.129L1491.69 927.133L1508.95 896.386Z" fill="white"/>
<path d="M1547.8 895.241L1554.92 899.236L1537.65 929.983L1530.54 925.987L1547.8 895.241Z" fill="white"/>
<path d="M1582.8 908.062L1589.92 912.058L1572.66 942.804L1565.54 938.809L1582.8 908.062Z" fill="white"/>
<path d="M1615.77 928.954L1622.89 932.95L1605.63 963.697L1598.51 959.701L1615.77 928.954Z" fill="white"/>
<path d="M1648.65 950.083L1655.77 954.078L1638.51 984.825L1631.39 980.83L1648.65 950.083Z" fill="white"/>
<path d="M1681.38 971.306L1688.5 975.302L1671.24 1006.05L1664.12 1002.05L1681.38 971.306Z" fill="white"/>
<path d="M1713.9 992.323L1721.02 996.318L1703.76 1027.07L1696.64 1023.07L1713.9 992.323Z" fill="white"/>
<path d="M1746.78 1013.45L1753.89 1017.44L1736.63 1048.19L1729.52 1044.2L1746.78 1013.45Z" fill="white"/>
<path d="M1779.51 1034.68L1786.63 1038.67L1769.37 1069.42L1762.25 1065.42L1779.51 1034.68Z" fill="white"/>
<path d="M1812.32 1055.85L1819.44 1059.85L1802.17 1090.6L1795.06 1086.6L1812.32 1055.85Z" fill="white"/>
<path d="M1845.06 1076.53L1852.18 1080.53L1834.92 1111.27L1827.81 1107.28L1845.06 1076.53Z" fill="white"/>
<path d="M1877.81 1097.76L1884.93 1101.75L1867.67 1132.5L1860.55 1128.51L1877.81 1097.76Z" fill="white"/>
<path d="M1910.62 1118.94L1917.73 1122.93L1900.47 1153.68L1893.35 1149.68L1910.62 1118.94Z" fill="white"/>
<path d="M1943.13 1139.95L1950.25 1143.95L1932.99 1174.7L1925.87 1170.7L1943.13 1139.95Z" fill="white"/>
<path d="M1975.95 1161.13L1983.06 1165.13L1965.8 1195.87L1958.68 1191.88L1975.95 1161.13Z" fill="white"/>
<path d="M159.365 895.231L168.842 929.195L160.98 931.389L151.503 897.425L159.365 895.231Z" fill="white"/>
<path d="M197.255 887.227L206.729 921.191L198.866 923.384L189.393 889.42L197.255 887.227Z" fill="white"/>
<path d="M235.423 879.085L244.896 913.049L237.034 915.242L227.561 881.278L235.423 879.085Z" fill="white"/>
<path d="M273.556 870.899L283.033 904.863L275.171 907.057L265.694 873.093L273.556 870.899Z" fill="white"/>
<path d="M311.679 862.493L321.152 896.457L313.29 898.65L303.817 864.686L311.679 862.493Z" fill="white"/>
<path d="M349.53 854.44L359.004 888.404L351.142 890.597L341.668 856.633L349.53 854.44Z" fill="white"/>
<path d="M387.7 846.304L397.174 880.268L389.312 882.461L379.838 848.497L387.7 846.304Z" fill="white"/>
<path d="M425.87 838.161L435.344 872.125L427.482 874.318L418.008 840.354L425.87 838.161Z" fill="white"/>
<path d="M464.038 830.02L473.512 863.984L465.65 866.177L456.176 832.213L464.038 830.02Z" fill="white"/>
<path d="M502.083 821.528L511.561 855.492L503.699 857.686L494.221 823.722L502.083 821.528Z" fill="white"/>
<path d="M539.97 813.517L549.443 847.481L541.581 849.674L532.108 815.71L539.97 813.517Z" fill="white"/>
<path d="M578.138 805.379L587.611 839.343L579.749 841.536L570.276 807.572L578.138 805.379Z" fill="white"/>
<path d="M616.306 797.237L625.779 831.201L617.917 833.394L608.444 799.43L616.306 797.237Z" fill="white"/>
<path d="M654.481 789.096L663.955 823.061L656.093 825.254L646.619 791.289L654.481 789.096Z" fill="white"/>
<path d="M692.649 780.958L702.123 814.922L694.261 817.115L684.787 783.151L692.649 780.958Z" fill="white"/>
<path d="M730.415 772.593L739.889 806.557L732.027 808.75L722.553 774.786L730.415 772.593Z" fill="white"/>
<path d="M768.583 764.452L778.057 798.416L770.195 800.609L760.721 766.645L768.583 764.452Z" fill="white"/>
<path d="M806.751 756.314L816.225 790.278L808.363 792.471L798.889 758.507L806.751 756.314Z" fill="white"/>
<path d="M844.921 748.176L854.395 782.141L846.532 784.334L837.059 750.369L844.921 748.176Z" fill="white"/>
<path d="M162.718 100.044L381.387 188.721L1035.97 304.19L1865.83 748.801L1950.05 796.361L1960.55 796.361L1868 742.497L1038.13 297.63L383.544 182.161L166.003 94.498L162.718 100.044Z" fill="white"/>
</svg>
