<svg width="1825" height="741" viewBox="0 0 1825 741" fill="none" xmlns="http://www.w3.org/2000/svg">
<path d="M1824.84 121.677L1290.6 379.29H1289.84L702.572 344.677L3.65367 740.123L0.230469 734.037L701.051 337.451L1289.08 372.443L1822.18 115.591L1824.84 121.677Z" fill="white"/>
<path d="M497.06 57.3369L491.203 60.8829L650.18 323.458L656.037 319.912L497.06 57.3369Z" fill="white"/>
<path d="M454.66 83.0474L448.803 86.5934L607.78 349.169L613.637 345.623L454.66 83.0474Z" fill="white"/>
<path d="M410.873 109.763L405.017 113.309L563.994 375.884L569.85 372.338L410.873 109.763Z" fill="white"/>
<path d="M494.523 195.4L488.667 198.946L507.972 230.832L513.829 227.286L494.523 195.4Z" fill="white"/>
<path d="M523.409 245.84L517.553 249.386L536.858 281.273L542.715 277.727L523.409 245.84Z" fill="white"/>
<path d="M464.403 145.914L458.547 149.46L477.852 181.346L483.709 177.8L464.403 145.914Z" fill="white"/>
<path d="M434.385 98.4434L428.528 101.989L447.834 133.876L453.691 130.33L434.385 98.4434Z" fill="white"/>
<path d="M538.541 172.642L532.684 176.188L551.99 208.075L557.847 204.529L538.541 172.642Z" fill="white"/>
<path d="M567.43 223.082L561.573 226.628L580.879 258.514L586.735 254.968L567.43 223.082Z" fill="white"/>
<path d="M508.748 122.958L502.892 126.504L522.197 158.391L528.054 154.845L508.748 122.958Z" fill="white"/>
<path d="M478.401 75.6927L472.544 79.2386L491.85 111.125L497.706 107.579L478.401 75.6927Z" fill="white"/>
<path d="M389.31 122.856L383.453 126.402L542.43 388.978L548.287 385.432L389.31 122.856Z" fill="white"/>
<path d="M398.228 210.701L392.371 214.247L510.176 408.82L516.032 405.274L398.228 210.701Z" fill="white"/>
<path d="M376.656 223.791L370.8 227.337L488.604 421.909L494.461 418.363L376.656 223.791Z" fill="white"/>
<path d="M355.097 236.88L349.24 240.425L467.045 434.998L472.901 431.452L355.097 236.88Z" fill="white"/>
<path d="M338.219 254.948L310.53 287.821L315.766 292.232L343.456 259.359L338.219 254.948Z" fill="white"/>
<path d="M351.524 278.048L323.835 310.921L329.071 315.331L356.761 282.459L351.524 278.048Z" fill="white"/>
<path d="M365.211 301.448L337.522 334.321L342.758 338.732L370.448 305.859L365.211 301.448Z" fill="white"/>
<path d="M378.579 324.589L350.889 357.462L356.126 361.872L383.815 329L378.579 324.589Z" fill="white"/>
<path d="M404.459 371.702L376.77 404.574L382.006 408.985L409.695 376.112L404.459 371.702Z" fill="white"/>
<path d="M393.712 347.161L366.022 380.033L371.259 384.444L398.948 351.572L393.712 347.161Z" fill="white"/>
<path d="M415.788 396.219L388.098 429.092L393.335 433.502L421.024 400.63L415.788 396.219Z" fill="white"/>
<path d="M430.632 418.544L402.942 451.416L408.178 455.827L435.868 422.954L430.632 418.544Z" fill="white"/>
<path d="M1401.81 58.9997L1396.42 61.824L1486.97 234.659L1492.36 231.835L1401.81 58.9997Z" fill="white"/>
<path d="M1240.05 196.137L1234.66 198.961L1303.67 330.693L1309.06 327.869L1240.05 196.137Z" fill="white"/>
<path d="M1255.68 188.117L1250.29 190.942L1319.31 322.673L1324.7 319.849L1255.68 188.117Z" fill="white"/>
<path d="M1447.7 87.5601L1442.31 90.3844L1511.33 222.117L1516.72 219.292L1447.7 87.5601Z" fill="white"/>
<path d="M1463.14 79.1998L1457.75 82.024L1526.77 213.756L1532.16 210.931L1463.14 79.1998Z" fill="white"/>
<path d="M1379.99 61.8824L1374.6 64.7066L1468.86 244.617L1474.25 241.792L1379.99 61.8824Z" fill="white"/>
<path d="M1353.34 55.5036L1347.95 58.3278L1450.5 254.073L1455.89 251.249L1353.34 55.5036Z" fill="white"/>
<path d="M1328.99 53.375L1323.6 56.1992L1432.15 263.399L1437.55 260.575L1328.99 53.375Z" fill="white"/>
<path d="M1304.36 50.4475L1298.97 53.2717L1384.93 217.348L1390.32 214.523L1304.36 50.4475Z" fill="white"/>
<path d="M1292.7 72.6087L1287.31 75.4329L1395.86 282.633L1401.25 279.809L1292.7 72.6087Z" fill="white"/>
<path d="M1280.25 93.7865L1274.86 96.6108L1377.41 292.356L1382.8 289.532L1280.25 93.7865Z" fill="white"/>
<path d="M1270.42 119.048L1265.03 121.872L1359.28 301.782L1364.68 298.958L1270.42 119.048Z" fill="white"/>
<path d="M1255.61 135.548L1250.22 138.373L1340.77 311.208L1346.16 308.384L1255.61 135.548Z" fill="white"/>
<path d="M1207 174.807L1202.03 171.805L1291.73 21.9756L1456.94 38.5177L1456.61 44.2259L1295.2 28.4137L1207 174.807Z" fill="white"/>
<path d="M1195.41 152.839L1190.44 149.836L1280.14 0.00683594L1445.35 16.1686L1444.64 22.2603L1283.61 6.44504L1195.41 152.839Z" fill="white"/>
</svg>
