<svg width="3150" height="2547" viewBox="0 0 3150 2547" fill="none" xmlns="http://www.w3.org/2000/svg">
<path d="M1399.36 1077.92L1405.09 1079.26L1345.07 1335.8L1339.35 1334.46L1399.36 1077.92Z" fill="white"/>
<path d="M1440.8 1087.65L1446.52 1088.98L1386.51 1345.53L1380.78 1344.19L1440.8 1087.65Z" fill="white"/>
<path d="M1483.64 1097.82L1489.36 1099.16L1429.34 1355.7L1423.62 1354.36L1483.64 1097.82Z" fill="white"/>
<path d="M1438.11 1189.94L1443.83 1191.28L1436.54 1222.43L1430.82 1221.09L1438.11 1189.94Z" fill="white"/>
<path d="M1427.93 1238.78L1433.65 1240.12L1426.36 1271.27L1420.64 1269.93L1427.93 1238.78Z" fill="white"/>
<path d="M1449.54 1141.54L1455.27 1142.88L1447.98 1174.03L1442.26 1172.69L1449.54 1141.54Z" fill="white"/>
<path d="M1461.44 1094.83L1467.16 1096.17L1459.88 1127.32L1454.15 1125.98L1461.44 1094.83Z" fill="white"/>
<path d="M1396.14 1183.05L1401.86 1184.39L1394.58 1215.55L1388.85 1214.21L1396.14 1183.05Z" fill="white"/>
<path d="M1385.95 1231.9L1391.68 1233.24L1384.39 1264.39L1378.67 1263.05L1385.95 1231.9Z" fill="white"/>
<path d="M1407.26 1134.58L1412.98 1135.92L1405.69 1167.08L1399.97 1165.74L1407.26 1134.58Z" fill="white"/>
<path d="M1419.47 1087.94L1425.19 1089.28L1417.9 1120.44L1412.18 1119.1L1419.47 1087.94Z" fill="white"/>
<path d="M1504.71 1102.78L1510.43 1104.12L1450.42 1360.66L1444.69 1359.32L1504.71 1102.78Z" fill="white"/>
<path d="M1520.77 1176.85L1526.49 1178.19L1482.02 1368.29L1476.3 1366.95L1520.77 1176.85Z" fill="white"/>
<path d="M1541.85 1181.8L1547.57 1183.14L1503.1 1373.25L1497.38 1371.91L1541.85 1181.8Z" fill="white"/>
<path d="M1562.93 1186.76L1568.65 1188.1L1524.18 1378.2L1518.46 1376.86L1562.93 1186.76Z" fill="white"/>
<path d="M1581.5 1197.02L1612.83 1216.5L1609.73 1221.49L1578.39 1202.01L1581.5 1197.02Z" fill="white"/>
<path d="M1576.77 1219.41L1608.11 1238.89L1605 1243.88L1573.67 1224.4L1576.77 1219.41Z" fill="white"/>
<path d="M1571.82 1242.14L1603.16 1261.62L1600.05 1266.61L1568.72 1247.14L1571.82 1242.14Z" fill="white"/>
<path d="M1567.06 1264.59L1598.39 1284.06L1595.29 1289.05L1563.96 1269.58L1567.06 1264.59Z" fill="white"/>
<path d="M1558.44 1309.91L1589.77 1329.39L1586.67 1334.38L1555.33 1314.9L1558.44 1309.91Z" fill="white"/>
<path d="M1560.7 1287.03L1592.03 1306.5L1588.93 1311.49L1557.6 1292.02L1560.7 1287.03Z" fill="white"/>
<path d="M1555.71 1332.93L1587.04 1352.41L1583.94 1357.4L1552.61 1337.92L1555.71 1332.93Z" fill="white"/>
<path d="M1549.53 1355.1L1580.86 1374.57L1577.76 1379.56L1546.42 1360.09L1549.53 1355.1Z" fill="white"/>
<path d="M607.052 1341.07L612.254 1341.54L597.13 1508.34L591.928 1507.87L607.052 1341.07Z" fill="white"/>
<path d="M780.345 1396.78L785.547 1397.25L774.02 1524.38L768.818 1523.91L780.345 1396.78Z" fill="white"/>
<path d="M765.325 1395.54L770.527 1396.01L759 1523.14L753.798 1522.67L765.325 1395.54Z" fill="white"/>
<path d="M580.028 1378.77L585.23 1379.24L573.703 1506.37L568.501 1505.9L580.028 1378.77Z" fill="white"/>
<path d="M565.028 1377.21L570.23 1377.68L558.703 1504.81L553.501 1504.34L565.028 1377.21Z" fill="white"/>
<path d="M625.309 1336.19L630.512 1336.67L614.769 1510.29L609.567 1509.82L625.309 1336.19Z" fill="white"/>
<path d="M644.349 1322.4L649.551 1322.87L632.422 1511.77L627.22 1511.3L644.349 1322.4Z" fill="white"/>
<path d="M662.97 1312.72L668.172 1313.19L650.041 1513.15L644.839 1512.68L662.97 1312.72Z" fill="white"/>
<path d="M681.544 1302.32L686.746 1302.79L672.389 1461.13L667.187 1460.66L681.544 1302.32Z" fill="white"/>
<path d="M698.063 1316.07L703.266 1316.54L685.135 1516.51L679.933 1516.03L698.063 1316.07Z" fill="white"/>
<path d="M714.887 1328.78L720.09 1329.25L702.961 1518.16L697.759 1517.68L714.887 1328.78Z" fill="white"/>
<path d="M730.974 1345.59L736.176 1346.07L720.433 1519.69L715.231 1519.22L730.974 1345.59Z" fill="white"/>
<path d="M748.13 1353.82L753.332 1354.29L738.208 1521.09L733.006 1520.62L748.13 1353.82Z" fill="white"/>
<path d="M799.566 1369.02L802.522 1365L682.223 1275.59L556.605 1342.91L558.743 1347.33L681.579 1281.83L799.566 1369.02Z" fill="white"/>
<path d="M801.55 1347.79L804.507 1343.78L684.208 1254.36L558.467 1321.38L561.03 1325.98L683.563 1260.61L801.55 1347.79Z" fill="white"/>
<path d="M762.44 1010.47L770.281 1012.74L760.491 1046.61L752.65 1044.35L762.44 1010.47Z" fill="white"/>
<path d="M729.151 992.06L736.992 994.326L727.202 1028.2L719.361 1025.93L729.151 992.06Z" fill="white"/>
<path d="M695.866 973.64L703.707 975.906L693.917 1009.78L686.076 1007.51L695.866 973.64Z" fill="white"/>
<path d="M662.581 955.218L670.422 957.484L660.632 991.359L652.79 989.093L662.581 955.218Z" fill="white"/>
<path d="M629.295 936.798L637.137 939.064L627.347 972.939L619.505 970.673L629.295 936.798Z" fill="white"/>
<path d="M596.01 918.378L603.852 920.645L594.061 954.519L586.22 952.253L596.01 918.378Z" fill="white"/>
<path d="M562.725 899.958L570.566 902.225L560.776 936.099L552.935 933.833L562.725 899.958Z" fill="white"/>
<path d="M529.44 881.538L537.281 883.805L527.491 917.679L519.65 915.413L529.44 881.538Z" fill="white"/>
<path d="M496.155 863.12L503.996 865.387L494.206 899.261L486.365 896.995L496.155 863.12Z" fill="white"/>
<path d="M462.87 844.701L470.711 846.967L460.921 880.841L453.079 878.575L462.87 844.701Z" fill="white"/>
<path d="M429.584 826.279L437.426 828.545L427.636 862.419L419.794 860.153L429.584 826.279Z" fill="white"/>
<path d="M396.299 807.861L404.141 810.127L394.35 844.001L386.509 841.735L396.299 807.861Z" fill="white"/>
<path d="M363.014 789.439L370.855 791.705L361.065 825.579L353.224 823.313L363.014 789.439Z" fill="white"/>
<path d="M329.729 771.021L337.57 773.287L327.78 807.162L319.939 804.895L329.729 771.021Z" fill="white"/>
<path d="M296.444 752.601L304.285 754.867L294.495 788.742L286.654 786.475L296.444 752.601Z" fill="white"/>
<path d="M263.159 734.179L271 736.445L261.21 770.32L253.368 768.053L263.159 734.179Z" fill="white"/>
<path d="M794.475 1032.7L802.316 1034.96L792.53 1068.84L784.689 1066.57L794.475 1032.7Z" fill="white"/>
<path d="M826.678 1054.74L834.52 1057L824.729 1090.88L816.888 1088.61L826.678 1054.74Z" fill="white"/>
<path d="M858.596 1076.98L866.438 1079.24L856.647 1113.12L848.806 1110.85L858.596 1076.98Z" fill="white"/>
<path d="M890.725 1098.88L898.566 1101.15L888.78 1135.02L880.939 1132.76L890.725 1098.88Z" fill="white"/>
<path d="M922.834 1121.24L930.676 1123.51L920.886 1157.38L913.044 1155.12L922.834 1121.24Z" fill="white"/>
<path d="M954.846 1143.17L962.688 1145.43L952.897 1179.31L945.056 1177.04L954.846 1143.17Z" fill="white"/>
<path d="M986.764 1165.41L994.605 1167.68L984.815 1201.55L976.974 1199.29L986.764 1165.41Z" fill="white"/>
<path d="M1019.09 1187.43L1026.93 1189.7L1017.14 1223.57L1009.3 1221.31L1019.09 1187.43Z" fill="white"/>
<path d="M1051.12 1209.64L1058.96 1211.91L1049.17 1245.78L1041.33 1243.51L1051.12 1209.64Z" fill="white"/>
<path d="M1083.02 1231.6L1090.86 1233.87L1081.07 1267.74L1073.23 1265.47L1083.02 1231.6Z" fill="white"/>
<path d="M1115.25 1253.94L1123.09 1256.21L1113.3 1290.08L1105.46 1287.81L1115.25 1253.94Z" fill="white"/>
<path d="M1147.26 1275.86L1155.1 1278.13L1145.31 1312L1137.47 1309.74L1147.26 1275.86Z" fill="white"/>
<path d="M1179.18 1298.1L1187.02 1300.37L1177.23 1334.25L1169.39 1331.98L1179.18 1298.1Z" fill="white"/>
<path d="M1211.41 1320.44L1219.25 1322.7L1209.46 1356.58L1201.62 1354.31L1211.41 1320.44Z" fill="white"/>
<path d="M1243.41 1342.37L1251.25 1344.63L1241.46 1378.51L1233.62 1376.24L1243.41 1342.37Z" fill="white"/>
<path d="M1275.33 1364.61L1283.17 1366.88L1273.38 1400.75L1265.54 1398.49L1275.33 1364.61Z" fill="white"/>
<path d="M1307.75 1386.59L1315.59 1388.85L1305.81 1422.72L1297.97 1420.46L1307.75 1386.59Z" fill="white"/>
<path d="M1339.57 1408.87L1347.41 1411.14L1337.62 1445.01L1329.78 1442.75L1339.57 1408.87Z" fill="white"/>
<path d="M1371.58 1430.8L1379.43 1433.07L1369.64 1466.94L1361.79 1464.67L1371.58 1430.8Z" fill="white"/>
<path d="M1403.91 1453.09L1411.75 1455.35L1401.96 1489.23L1394.12 1486.96L1403.91 1453.09Z" fill="white"/>
<path d="M1435.83 1475.06L1443.67 1477.33L1433.88 1511.2L1426.04 1508.94L1435.83 1475.06Z" fill="white"/>
<path d="M1467.74 1497.31L1475.59 1499.57L1465.8 1533.45L1457.95 1531.18L1467.74 1497.31Z" fill="white"/>
<path d="M1503.27 1500.28L1511.11 1502.55L1501.32 1536.43L1493.48 1534.16L1503.27 1500.28Z" fill="white"/>
<path d="M1540.82 1490.31L1548.66 1492.57L1538.87 1526.45L1531.03 1524.18L1540.82 1490.31Z" fill="white"/>
<path d="M1578.39 1480.33L1586.23 1482.59L1576.44 1516.47L1568.6 1514.2L1578.39 1480.33Z" fill="white"/>
<path d="M1616.35 1470.12L1624.19 1472.39L1614.4 1506.26L1606.56 1503.99L1616.35 1470.12Z" fill="white"/>
<path d="M1653.91 1460.15L1661.75 1462.41L1651.96 1496.29L1644.12 1494.02L1653.91 1460.15Z" fill="white"/>
<path d="M1691.47 1450.17L1699.31 1452.43L1689.52 1486.31L1681.68 1484.04L1691.47 1450.17Z" fill="white"/>
<path d="M1729.42 1440.22L1737.26 1442.49L1727.47 1476.36L1719.63 1474.1L1729.42 1440.22Z" fill="white"/>
<path d="M1766.98 1430.24L1774.82 1432.51L1765.03 1466.38L1757.19 1464.12L1766.98 1430.24Z" fill="white"/>
<path d="M1804.46 1420.32L1812.3 1422.58L1802.51 1456.46L1794.67 1454.19L1804.46 1420.32Z" fill="white"/>
<path d="M1842.02 1410.34L1849.86 1412.6L1840.07 1446.48L1832.23 1444.21L1842.02 1410.34Z" fill="white"/>
<path d="M1879.89 1400.45L1887.73 1402.72L1877.94 1436.59L1870.1 1434.32L1879.89 1400.45Z" fill="white"/>
<path d="M1917.45 1390.47L1925.29 1392.74L1915.5 1426.61L1907.66 1424.34L1917.45 1390.47Z" fill="white"/>
<path d="M1955.01 1380.49L1962.86 1382.76L1953.07 1416.63L1945.22 1414.36L1955.01 1380.49Z" fill="white"/>
<path d="M1992.02 1384.99L1999.86 1387.25L1990.07 1421.13L1982.23 1418.86L1992.02 1384.99Z" fill="white"/>
<path d="M2028.89 1397.8L2036.73 1400.07L2026.94 1433.94L2019.1 1431.68L2028.89 1397.8Z" fill="white"/>
<path d="M2065.72 1410.87L2073.56 1413.14L2063.77 1447.01L2055.93 1444.75L2065.72 1410.87Z" fill="white"/>
<path d="M2102.43 1424.07L2110.27 1426.33L2100.48 1460.21L2092.64 1457.94L2102.43 1424.07Z" fill="white"/>
<path d="M2138.89 1437.11L2146.73 1439.38L2136.94 1473.25L2129.1 1470.98L2138.89 1437.11Z" fill="white"/>
<path d="M2175.72 1450.18L2183.56 1452.44L2173.77 1486.32L2165.93 1484.05L2175.72 1450.18Z" fill="white"/>
<path d="M2212.43 1463.38L2220.27 1465.64L2210.48 1499.52L2202.64 1497.25L2212.43 1463.38Z" fill="white"/>
<path d="M2249.21 1476.51L2257.05 1478.77L2247.26 1512.65L2239.42 1510.38L2249.21 1476.51Z" fill="white"/>
<path d="M2285.81 1489.17L2293.65 1491.43L2283.86 1525.31L2276.02 1523.04L2285.81 1489.17Z" fill="white"/>
<path d="M2322.53 1502.36L2330.37 1504.63L2320.58 1538.5L2312.74 1536.24L2322.53 1502.36Z" fill="white"/>
<path d="M2359.3 1515.5L2367.14 1517.76L2357.35 1551.64L2349.51 1549.37L2359.3 1515.5Z" fill="white"/>
<path d="M2395.76 1528.54L2403.6 1530.81L2393.81 1564.68L2385.97 1562.41L2395.76 1528.54Z" fill="white"/>
<path d="M2432.54 1541.67L2440.38 1543.94L2430.59 1577.81L2422.75 1575.55L2432.54 1541.67Z" fill="white"/>
<path d="M2469.31 1554.8L2477.15 1557.07L2467.36 1590.94L2459.52 1588.68L2469.31 1554.8Z" fill="white"/>
<path d="M2506.12 1567.86L2513.96 1570.12L2504.18 1604L2496.34 1601.73L2506.12 1567.86Z" fill="white"/>
<path d="M2542.63 1580.66L2550.47 1582.93L2540.68 1616.8L2532.84 1614.54L2542.63 1580.66Z" fill="white"/>
<path d="M2579.4 1593.8L2587.24 1596.06L2577.45 1629.94L2569.61 1627.67L2579.4 1593.8Z" fill="white"/>
<path d="M2616.17 1606.93L2624.02 1609.2L2614.23 1643.07L2606.38 1640.8L2616.17 1606.93Z" fill="white"/>
<path d="M2652.95 1620.06L2660.79 1622.32L2651 1656.2L2643.16 1653.93L2652.95 1620.06Z" fill="white"/>
<path d="M2689.41 1633.1L2697.25 1635.37L2687.46 1669.24L2679.62 1666.98L2689.41 1633.1Z" fill="white"/>
<path d="M2726.18 1646.24L2734.02 1648.5L2724.23 1682.38L2716.39 1680.11L2726.18 1646.24Z" fill="white"/>
<path d="M2762.96 1659.36L2770.8 1661.63L2761.01 1695.51L2753.17 1693.24L2762.96 1659.36Z" fill="white"/>
<path d="M2799.81 1672.18L2807.66 1674.45L2797.87 1708.33L2790.02 1706.06L2799.81 1672.18Z" fill="white"/>
<path d="M2836.28 1685.22L2844.12 1687.49L2834.33 1721.36L2826.49 1719.1L2836.28 1685.22Z" fill="white"/>
<path d="M2873.05 1698.36L2880.89 1700.62L2871.1 1734.5L2863.26 1732.23L2873.05 1698.36Z" fill="white"/>
<path d="M2909.84 1711.4L2917.68 1713.66L2907.9 1747.54L2900.06 1745.27L2909.84 1711.4Z" fill="white"/>
<path d="M2946.28 1724.53L2954.12 1726.8L2944.33 1760.67L2936.49 1758.41L2946.28 1724.53Z" fill="white"/>
<path d="M2983.06 1737.67L2990.9 1739.93L2981.11 1773.81L2973.27 1771.54L2983.06 1737.67Z" fill="white"/>
<path d="M3019.83 1750.8L3027.67 1753.06L3017.88 1786.94L3010.04 1784.67L3019.83 1750.8Z" fill="white"/>
<path d="M3056.69 1763.61L3064.53 1765.88L3054.74 1799.75L3046.9 1797.49L3056.69 1763.61Z" fill="white"/>
<path d="M3093.15 1776.66L3100.99 1778.92L3091.2 1812.8L3083.36 1810.53L3093.15 1776.66Z" fill="white"/>
<path d="M17.8822 1767.16L26.043 1767.02L26.6203 1802.28L18.4596 1802.41L17.8822 1767.16Z" fill="white"/>
<path d="M56.5342 1768.69L64.6953 1768.56L65.2697 1803.81L57.1086 1803.95L56.5342 1768.69Z" fill="white"/>
<path d="M95.5439 1770.46L103.705 1770.33L104.28 1805.58L96.1184 1805.72L95.5439 1770.46Z" fill="white"/>
<path d="M134.552 1772.23L142.713 1772.1L143.287 1807.36L135.126 1807.49L134.552 1772.23Z" fill="white"/>
<path d="M173.562 1774L181.723 1773.87L182.297 1809.12L174.136 1809.26L173.562 1774Z" fill="white"/>
<path d="M212.239 1775.78L220.4 1775.64L220.975 1810.9L212.814 1811.03L212.239 1775.78Z" fill="white"/>
<path d="M251.245 1777.55L259.406 1777.42L259.981 1812.67L251.82 1812.81L251.245 1777.55Z" fill="white"/>
<path d="M290.257 1779.32L298.418 1779.19L298.992 1814.44L290.831 1814.57L290.257 1779.32Z" fill="white"/>
<path d="M329.253 1780.76L337.414 1780.63L337.988 1815.89L329.827 1816.02L329.253 1780.76Z" fill="white"/>
<path d="M367.937 1782.54L376.098 1782.4L376.672 1817.66L368.511 1817.79L367.937 1782.54Z" fill="white"/>
<path d="M406.944 1784.31L415.105 1784.18L415.68 1819.43L407.519 1819.57L406.944 1784.31Z" fill="white"/>
<path d="M445.945 1785.99L454.105 1785.85L454.683 1821.11L446.522 1821.24L445.945 1785.99Z" fill="white"/>
<path d="M484.632 1787.86L492.793 1787.72L493.367 1822.98L485.206 1823.11L484.632 1787.86Z" fill="white"/>
<path d="M523.64 1789.63L531.801 1789.5L532.375 1824.75L524.214 1824.89L523.64 1789.63Z" fill="white"/>
<path d="M562.647 1791.4L570.809 1791.26L571.383 1826.52L563.222 1826.65L562.647 1791.4Z" fill="white"/>
<path d="M601.647 1792.84L609.809 1792.71L610.383 1827.96L602.222 1828.1L601.647 1792.84Z" fill="white"/>
<path d="M640.331 1794.62L648.492 1794.49L649.067 1829.74L640.906 1829.88L640.331 1794.62Z" fill="white"/>
<path d="M675.776 1784.92L683.938 1784.78L684.512 1820.04L676.351 1820.17L675.776 1784.92Z" fill="white"/>
<path d="M711.222 1775.22L719.383 1775.08L719.957 1810.34L711.796 1810.47L711.222 1775.22Z" fill="white"/>
<path d="M746.667 1765.51L754.828 1765.38L755.403 1800.64L747.241 1800.77L746.667 1765.51Z" fill="white"/>
<path d="M782.112 1755.81L790.273 1755.68L790.848 1790.94L782.687 1791.07L782.112 1755.81Z" fill="white"/>
<path d="M817.558 1746.11L825.719 1745.98L826.293 1781.23L818.132 1781.37L817.558 1746.11Z" fill="white"/>
<path d="M853.003 1736.41L861.164 1736.28L861.738 1771.54L853.577 1771.67L853.003 1736.41Z" fill="white"/>
<path d="M888.448 1726.71L896.609 1726.58L897.184 1761.83L889.023 1761.97L888.448 1726.71Z" fill="white"/>
<path d="M923.894 1717.01L932.055 1716.88L932.629 1752.13L924.468 1752.27L923.894 1717.01Z" fill="white"/>
<path d="M959.339 1707.31L967.5 1707.17L968.074 1742.43L959.913 1742.56L959.339 1707.31Z" fill="white"/>
<path d="M994.784 1697.61L1002.95 1697.47L1003.52 1732.73L995.359 1732.86L994.784 1697.61Z" fill="white"/>
<path d="M1030.23 1687.9L1038.39 1687.77L1038.97 1723.03L1030.8 1723.16L1030.23 1687.9Z" fill="white"/>
<path d="M1065.67 1678.2L1073.84 1678.07L1074.41 1713.33L1066.25 1713.46L1065.67 1678.2Z" fill="white"/>
<path d="M1101.12 1668.5L1109.28 1668.37L1109.86 1703.63L1101.69 1703.76L1101.12 1668.5Z" fill="white"/>
<path d="M1136.57 1658.8L1144.73 1658.67L1145.3 1693.93L1137.14 1694.06L1136.57 1658.8Z" fill="white"/>
<path d="M1172.01 1649.1L1180.17 1648.97L1180.75 1684.22L1172.59 1684.36L1172.01 1649.1Z" fill="white"/>
<path d="M1207.46 1639.4L1215.62 1639.27L1216.19 1674.52L1208.03 1674.65L1207.46 1639.4Z" fill="white"/>
<path d="M1242.9 1629.7L1251.06 1629.56L1251.64 1664.82L1243.48 1664.95L1242.9 1629.7Z" fill="white"/>
<path d="M1278.35 1620L1286.51 1619.87L1287.08 1655.12L1278.92 1655.25L1278.35 1620Z" fill="white"/>
<path d="M1313.79 1610.3L1321.95 1610.16L1322.53 1645.42L1314.37 1645.55L1313.79 1610.3Z" fill="white"/>
<path d="M1349.24 1600.59L1357.4 1600.46L1357.97 1635.72L1349.81 1635.85L1349.24 1600.59Z" fill="white"/>
<path d="M1384.68 1590.89L1392.84 1590.76L1393.42 1626.02L1385.26 1626.15L1384.68 1590.89Z" fill="white"/>
<path d="M1420.13 1581.19L1428.29 1581.06L1428.86 1616.32L1420.7 1616.45L1420.13 1581.19Z" fill="white"/>
<path d="M1455.57 1571.49L1463.73 1571.36L1464.31 1606.62L1456.15 1606.75L1455.57 1571.49Z" fill="white"/>
<path d="M1491.02 1561.79L1499.18 1561.66L1499.75 1596.91L1491.59 1597.05L1491.02 1561.79Z" fill="white"/>
<path d="M1491.02 1561.79L1499.18 1561.66L1499.75 1596.91L1491.59 1597.05L1491.02 1561.79Z" fill="white"/>
<path d="M1527.78 1551.92L1535.94 1551.78L1536.51 1587.04L1528.35 1587.17L1527.78 1551.92Z" fill="white"/>
<path d="M1564.53 1542.05L1572.7 1541.91L1573.27 1577.17L1565.11 1577.3L1564.53 1542.05Z" fill="white"/>
<path d="M1601.29 1532.17L1609.45 1532.04L1610.03 1567.3L1601.87 1567.43L1601.29 1532.17Z" fill="white"/>
<path d="M1638.05 1522.3L1646.21 1522.16L1646.79 1557.42L1638.62 1557.55L1638.05 1522.3Z" fill="white"/>
<path d="M1674.81 1512.42L1682.97 1512.29L1683.54 1547.55L1675.38 1547.68L1674.81 1512.42Z" fill="white"/>
<path d="M1711.57 1502.55L1719.73 1502.42L1720.3 1537.68L1712.14 1537.81L1711.57 1502.55Z" fill="white"/>
<path d="M1748.32 1492.68L1756.48 1492.54L1757.06 1527.8L1748.9 1527.93L1748.32 1492.68Z" fill="white"/>
<path d="M74.5 683.633C103.7 695.233 483 791.133 669 837.633L1315 764.133L2475 1131.13L3113.5 683.633" stroke="white" stroke-width="8"/>
<path d="M50.5 1494.63C82.5 1500.23 553.5 1545.97 785 1568.13L1265.5 1368.13L2686.5 1699.13L3110 1494.13" stroke="white" stroke-width="8"/>
</svg>
