<svg width="249" height="187" viewBox="0 0 249 187" fill="none" xmlns="http://www.w3.org/2000/svg">
<path d="M55.0049 0.988281L55 6.72689H66.5V0.988281H55.0049Z" fill="white"/>
<path d="M182.005 53L182 58.7386H193.5V53H182.005Z" fill="white"/>
<path d="M38.0049 18.3457L38 24.0843H84.5V18.3457H38.0049Z" fill="white"/>
<path d="M165.005 70.3574L165 76.096H211.5V70.3574H165.005Z" fill="white"/>
<path d="M27.0049 35.9531L27 41.6917H94.0278V35.9531H27.0049Z" fill="white"/>
<path d="M154.005 87.9648L154 93.7035H221.028V87.9648H154.005Z" fill="white"/>
<path d="M35.0049 53.1738L35 58.9124H87V53.1738H35.0049Z" fill="white"/>
<path d="M162.005 105.186L162 110.924H214V105.186H162.005Z" fill="white"/>
<path d="M0.00494397 88L121.973 88.2852L121.968 94.0238L0 93.7386L0.00494397 88Z" fill="white"/>
<path d="M127.005 140.012L248.973 140.297L248.968 146.035L127 145.75L127.005 140.012Z" fill="white"/>
<path d="M14.0049 71L107.043 71.2852L107.038 77.0238L14 76.7386L14.0049 71Z" fill="white"/>
<path d="M141.005 123.012L234.043 123.297L234.038 129.035L141 128.75L141.005 123.012Z" fill="white"/>
<path d="M57.7241 134.308L57 105H63.8939L64.5418 134.29L57.7241 134.308Z" fill="white"/>
<path d="M184.724 186.32L184 157.012H190.894L191.542 186.301L184.724 186.32Z" fill="white"/>
</svg>
